<svg id="Ebene_2" data-name="Ebene 2" xmlns="http://www.w3.org/2000/svg" viewBox="0 0 256 258"><rect x="-355.57" y="-259.21" width="399.15" height="316.43" style="fill:none"/><path d="M-91.69-257.45c73.73,0,133.5,64.25,133.5,143.5S-18,29.55-91.69,29.55c-54,0-100-39.07-120.26-81.12-14.24-29.6,5.47-58.59,5.76-64.88v0c0-3.54-17.92-25.66-5.89-51.74C-195.71-203.72-152-257.45-91.69-257.45Z" style="fill:none;stroke:#333030;stroke-miterlimit:10;stroke-width:3.52837865828711px"/><rect x="-37.1" y="-4.01" width="279.53" height="221.6" transform="translate(-37.41 154.96) rotate(-65.11)" style="fill:none"/><polyline points="118.73 55.59 127.3 79.47 128.3 82.25" style="fill:none;stroke:#333030;stroke-miterlimit:10;stroke-width:3.50152730941772px"/><line x1="101.02" y1="6.28" x2="117.91" y2="53.32" style="fill:none;stroke:#333030;stroke-miterlimit:10;stroke-width:3.50152730941772px"/><path d="M118.71,55.53a11.56,11.56,0,0,1-.8-2.21Z" style="fill:none;stroke:#333030;stroke-miterlimit:10;stroke-width:2.88426367763387px"/><path d="M183.09,193.76c-21.73,46.83-80.17,65.86-130.51,42.5S-21,156,.78,109.15c15.92-34.31,54.31-52,87-52.48,23-.32,35.61,20.75,39.52,22.79h0c2.24,1.06,21.58-3.82,34.6,11.51C179.62,111.84,200.89,155.41,183.09,193.76Z" style="fill:none;stroke:#333030;stroke-miterlimit:10;stroke-width:2.4709428459918px"/><path d="M117.91,53.32c-2.6-9.88,4.13-26.88,17.56-42.16C152-7.63,172.34-16.73,181-9.16s2.23,28.94-14.28,47.73S129.8,66.46,121.19,58.88a9.94,9.94,0,0,1-2.46-3.29.08.08,0,0,1,0-.06Z" style="fill:none;stroke:#333030;stroke-miterlimit:10;stroke-width:2.4709428459918px"/><path d="M27.88,8c2.4-9.53,21.19-13,42-7.77S105.52,17.42,103.12,27s-21.18,13-42,7.77S25.48,17.53,27.88,8Z" style="fill:none;stroke:#333030;stroke-miterlimit:10;stroke-width:2.4709428459918px"/></svg>