<svg id="Ebene_2" data-name="Ebene 2" xmlns="http://www.w3.org/2000/svg" viewBox="0 0 258 258"><rect x="172.54" y="-265.57" width="316.43" height="399.15" transform="translate(199.08 244.51) rotate(-55.74)" style="fill:none"/><path d="M472-159.09c60.94,41.51,74.16,128.26,29.54,193.76S371.33,119.61,310.4,78.1c-44.65-30.41-60.68-88.61-53.72-134.75C261.58-89.13,294.19-102,298-107l0,0c2-2.91-.36-31.3,24.26-46.08C355.76-173.25,422.1-193.07,472-159.09Z" style="fill:none;stroke:#333030;stroke-miterlimit:10;stroke-width:3.52837865828711px"/><path d="M174.19,16.39c-12.87-5.6-13.41-32.87-1.2-60.93S205.5-90.8,218.37-85.21s13.41,32.88,1.2,60.94S187.05,22,174.19,16.39Z" style="fill:none;stroke:#333030;stroke-miterlimit:10;stroke-width:3.52837865828711px"/></svg>