<svg id="Ebene_2" data-name="Ebene 2" xmlns="http://www.w3.org/2000/svg" viewBox="0 0 258 258"><rect x="-72.57" y="8.79" width="399.15" height="316.43" style="fill:none"/><polyline points="51.03 176.97 76.81 151.51 79.81 148.55" style="fill:none;stroke:#333030;stroke-miterlimit:10;stroke-width:5px"/><line x1="-2.19" y1="229.55" x2="48.58" y2="179.4" style="fill:none;stroke:#333030;stroke-miterlimit:10;stroke-width:5px"/><path d="M51,177a17.29,17.29,0,0,1-2.39,2.37Z" style="fill:none;stroke:#333030;stroke-miterlimit:10;stroke-width:4.11857944085762px"/><path d="M191.31,10.55c73.73,0,133.5,64.25,133.5,143.5S265,297.55,191.31,297.55c-54,0-100-39.07-120.26-81.12-14.24-29.6,5.47-58.59,5.76-64.88v0c0-3.54-17.92-25.66-5.89-51.74C87.29,64.28,131,10.55,191.31,10.55Z" style="fill:none;stroke:#333030;stroke-miterlimit:10;stroke-width:3.52837865828711px"/><path d="M48.58,179.4c-11.23,9.3-37.29,10.8-65.16,2.59-34.26-10.08-58.28-31-53.66-46.7S-34.09,115,.17,125.1s58.28,31,53.65,46.7A14.39,14.39,0,0,1,51,177,.17.17,0,0,1,51,177Z" style="fill:none;stroke:#333030;stroke-miterlimit:10;stroke-width:3.52837865828711px"/><path d="M44,323.24c-13.79,2.62-29.59-19.62-35.3-49.68S9.53,217,23.31,214.4,52.9,234,58.61,264.08,57.78,320.63,44,323.24Z" style="fill:none;stroke:#333030;stroke-miterlimit:10;stroke-width:3.52837865828711px"/><rect x="245.9" y="263.99" width="279.53" height="221.6" transform="translate(-116.64 566.86) rotate(-65.11)" style="fill:none"/><rect x="-468.82" y="-436.21" width="417.92" height="527.17" transform="translate(48.41 -124.69) rotate(-24.76)" style="fill:none"/></svg>