<svg id="Ebene_2" data-name="Ebene 2" xmlns="http://www.w3.org/2000/svg" viewBox="0 0 258 258"><rect x="-330.57" y="-249.21" width="399.15" height="316.43" style="fill:none"/><path d="M-66.69-247.45c73.73,0,133.5,64.25,133.5,143.5S7,39.55-66.69,39.55c-54,0-100-39.07-120.26-81.12-14.24-29.6,5.47-58.59,5.76-64.88v0c0-3.54-17.92-25.66-5.89-51.74C-170.71-193.72-127-247.45-66.69-247.45Z" style="fill:none;stroke:#333030;stroke-miterlimit:10;stroke-width:3.52837865828711px"/><rect x="-12.1" y="5.99" width="279.53" height="221.6" transform="translate(-32.01 183.43) rotate(-65.11)" style="fill:none"/><polyline points="143.73 65.59 152.3 89.47 153.3 92.25" style="fill:none;stroke:#333030;stroke-miterlimit:10;stroke-width:3.50152730941772px"/><line x1="126.02" y1="16.28" x2="142.91" y2="63.32" style="fill:none;stroke:#333030;stroke-miterlimit:10;stroke-width:3.50152730941772px"/><path d="M143.71,65.53a11.56,11.56,0,0,1-.8-2.21Z" style="fill:none;stroke:#333030;stroke-miterlimit:10;stroke-width:2.88426367763387px"/><path d="M208.09,203.76c-21.73,46.83-80.17,65.86-130.51,42.5S4,166,25.78,119.15c15.92-34.31,54.31-52,87-52.48,23-.32,35.61,20.75,39.52,22.79h0c2.24,1.06,21.58-3.82,34.6,11.51C204.62,121.84,225.89,165.41,208.09,203.76Z" style="fill:none;stroke:#333030;stroke-miterlimit:10;stroke-width:2.4709428459918px"/><path d="M142.91,63.32c-2.6-9.88,4.13-26.88,17.56-42.16C177,2.37,197.34-6.73,206,.84s2.23,28.94-14.28,47.73S154.8,76.46,146.19,68.88a9.94,9.94,0,0,1-2.46-3.29.08.08,0,0,1,0-.06Z" style="fill:none;stroke:#333030;stroke-miterlimit:10;stroke-width:2.4709428459918px"/><path d="M52.88,18c2.4-9.53,21.19-13,42-7.77S130.52,27.42,128.12,37s-21.18,13-42,7.77S50.48,27.53,52.88,18Z" style="fill:none;stroke:#333030;stroke-miterlimit:10;stroke-width:2.4709428459918px"/></svg>