<svg id="Ebene_2" data-name="Ebene 2" xmlns="http://www.w3.org/2000/svg" viewBox="0 0 258 258"><rect x="172.54" y="-7.57" width="316.43" height="399.15" transform="translate(-14.15 357.25) rotate(-55.74)" style="fill:none"/><line x1="188.76" y1="170.96" x2="258.96" y2="158.1" style="fill:none;stroke:#333030;stroke-miterlimit:10;stroke-width:5px"/><path d="M472,98.91c60.94,41.51,74.16,128.26,29.54,193.76S371.33,377.61,310.4,336.1c-44.65-30.41-60.68-88.61-53.72-134.75C261.58,168.87,294.19,156,298,151l0,0c2-2.91-.36-31.3,24.26-46.08C355.76,84.75,422.1,64.93,472,98.91Z" style="fill:none;stroke:#333030;stroke-miterlimit:10;stroke-width:3.52837865828711px"/><path d="M259,158.1c-14.52,1.36-36.9-12.07-55.31-34.55C181,95.93,172.93,65.13,185.6,54.74s41.29,3.6,63.92,31.22,30.72,58.43,18,68.81a14.51,14.51,0,0,1-5.22,2.7h-.08Z" style="fill:none;stroke:#333030;stroke-miterlimit:10;stroke-width:3.52837865828711px"/><path d="M174.19,274.39c-12.87-5.6-13.41-32.87-1.2-60.93s32.51-46.26,45.38-40.67,13.41,32.88,1.2,60.94S187.05,280,174.19,274.39Z" style="fill:none;stroke:#333030;stroke-miterlimit:10;stroke-width:3.52837865828711px"/><rect x="306.18" y="-436.21" width="417.92" height="527.17" transform="translate(119.63 199.86) rotate(-24.76)" style="fill:none"/></svg>