<svg id="Ebene_2" data-name="Ebene 2" xmlns="http://www.w3.org/2000/svg" viewBox="0 0 258 258"><rect x="-344.46" y="-7.57" width="316.43" height="399.15" transform="translate(-240.06 -70.02) rotate(-55.74)" style="fill:none"/><path d="M-45,98.91c60.94,41.51,74.16,128.26,29.54,193.76S-145.67,377.61-206.6,336.1c-44.65-30.41-60.68-88.61-53.72-134.75C-255.42,168.87-222.81,156-219,151l0,0c2-2.91-.36-31.3,24.26-46.08C-161.24,84.75-94.9,64.93-45,98.91Z" style="fill:none;stroke:#333030;stroke-miterlimit:10;stroke-width:3.52837865828711px"/><rect x="185.43" y="8.79" width="399.15" height="316.43" style="fill:none"/><line x1="255.81" y1="229.55" x2="306.58" y2="179.4" style="fill:none;stroke:#333030;stroke-miterlimit:10;stroke-width:5px"/><path d="M306.58,179.4c-11.23,9.3-37.29,10.8-65.16,2.59-34.26-10.08-58.28-31-53.66-46.7S223.91,115,258.17,125.1s58.28,31,53.65,46.7A14.39,14.39,0,0,1,309,177a.17.17,0,0,1-.06.06Z" style="fill:none;stroke:#333030;stroke-miterlimit:10;stroke-width:3.52837865828711px"/><rect x="-210.82" y="-436.21" width="417.92" height="527.17" transform="translate(72.12 -16.64) rotate(-24.76)" style="fill:none"/><path d="M221.35-182c40.78,88.43-3.22,195.65-98.27,239.48S-82.09,65.14-122.87-23.29c-29.88-64.78-8.47-141.59,30.78-189.1,27.62-33.45,73.3-25.84,81-29l.05,0c4.26-1.92,20.86-35.68,58.79-35.68C99.37-277.06,188-254.42,221.35-182Z" style="fill:none;stroke:#333030;stroke-miterlimit:10;stroke-width:4.66009727327708px"/></svg>