<svg id="Ebene_2" data-name="Ebene 2" xmlns="http://www.w3.org/2000/svg" viewBox="0 0 258 258"><rect x="-84.46" y="-7.57" width="316.43" height="399.15" transform="translate(-126.45 144.85) rotate(-55.74)" style="fill:none"/><polyline points="5.35 157.47 40.99 150.94 45.14 150.18" style="fill:none;stroke:#333030;stroke-miterlimit:10;stroke-width:5px"/><line x1="-68.24" y1="170.96" x2="1.96" y2="158.1" style="fill:none;stroke:#333030;stroke-miterlimit:10;stroke-width:5px"/><path d="M5.27,157.48A17.47,17.47,0,0,1,2,158.1Z" style="fill:none;stroke:#333030;stroke-miterlimit:10;stroke-width:4.11857944085762px"/><path d="M215,98.91c60.94,41.51,74.16,128.26,29.54,193.76S114.33,377.61,53.4,336.1C8.75,305.69-7.28,247.49-.32,201.35,4.58,168.87,37.19,156,41,151l0,0c2-2.91-.36-31.3,24.26-46.08C98.76,84.75,165.1,64.93,215,98.91Z" style="fill:none;stroke:#333030;stroke-miterlimit:10;stroke-width:3.52837865828711px"/><path d="M2,158.1c-14.52,1.36-36.9-12.07-55.31-34.55C-76,95.93-84.07,65.13-71.4,54.74S-30.11,58.34-7.48,86s30.72,58.43,18.05,68.81a14.51,14.51,0,0,1-5.22,2.7H5.27Z" style="fill:none;stroke:#333030;stroke-miterlimit:10;stroke-width:3.52837865828711px"/><rect x="49.18" y="-436.21" width="417.92" height="527.17" transform="translate(96.01 92.24) rotate(-24.76)" style="fill:none"/><path d="M481.35-182c40.78,88.43-3.22,195.65-98.27,239.48S177.91,65.14,137.13-23.29c-29.88-64.78-8.47-141.59,30.78-189.1,27.62-33.45,73.3-25.84,81-29l.05,0c4.26-1.92,20.86-35.68,58.79-35.68C359.37-277.06,448-254.42,481.35-182Z" style="fill:none;stroke:#333030;stroke-miterlimit:10;stroke-width:4.66009727327708px"/></svg>