<svg id="Ebene_2" data-name="Ebene 2" xmlns="http://www.w3.org/2000/svg" viewBox="0 0 258 258"><rect x="120.57" y="101.57" width="179.46" height="226.37" transform="translate(-37.08 44.03) rotate(-10.99)" style="fill:none"/><polyline points="196.54 173.53 213.5 185.13 215.47 186.49" style="fill:none;stroke:#333030;stroke-miterlimit:10;stroke-width:2.83567160367966px"/><line x1="161.51" y1="149.59" x2="194.92" y2="172.43" style="fill:none;stroke:#333030;stroke-miterlimit:10;stroke-width:2.83567160367966px"/><path d="M196.5,173.51a10.06,10.06,0,0,1-1.58-1.08Z" style="fill:none;stroke:#333030;stroke-miterlimit:10;stroke-width:2.33578775358776px"/><path d="M304.36,233.64c8,41.05-21.34,81.27-65.46,89.84s-86.36-17.76-94.33-58.81c-5.84-30.07,10.94-59.92,32.16-75.72,14.94-11.13,33.21-3.29,36.75-3.81h0c2-.36,12.35-12.75,28.17-8.87C263.2,181.54,297.83,200,304.36,233.64Z" style="fill:none;stroke:#333030;stroke-miterlimit:10;stroke-width:2.00106463366682px"/><path d="M194.92,172.43c-6.39-5.24-10-19.59-8.49-36,1.91-20.17,10.95-35.8,20.2-34.93s15.2,17.94,13.29,38.1-11,35.8-20.2,34.92a8,8,0,0,1-3.18-1l0,0Z" style="fill:none;stroke:#333030;stroke-miterlimit:10;stroke-width:2.00106463366682px"/><path d="M114.34,185.44c-3-7.4,7.73-18.6,23.85-25s31.56-5.65,34.51,1.74-7.72,18.59-23.84,25S117.29,192.83,114.34,185.44Z" style="fill:none;stroke:#333030;stroke-miterlimit:10;stroke-width:2.00106463366682px"/><rect x="-468.82" y="76.79" width="417.92" height="527.17" transform="translate(-166.42 -77.54) rotate(-24.76)" style="fill:none"/></svg>