<svg id="Ebene_2" data-name="Ebene 2" xmlns="http://www.w3.org/2000/svg" viewBox="0 0 258 258"><rect x="-330.57" y="8.79" width="399.15" height="316.43" style="fill:none"/><path d="M-66.69,10.55C7,10.55,66.81,74.8,66.81,154.05S7,297.55-66.69,297.55c-54,0-100-39.07-120.26-81.12-14.24-29.6,5.47-58.59,5.76-64.88v0c0-3.54-17.92-25.66-5.89-51.74C-170.71,64.28-127,10.55-66.69,10.55Z" style="fill:none;stroke:#333030;stroke-miterlimit:10;stroke-width:3.52837865828711px"/><rect x="-12.1" y="263.99" width="279.53" height="221.6" transform="translate(-266.04 332.83) rotate(-65.11)" style="fill:none"/><path d="M142.91,321.32c-2.6-9.88,4.13-26.88,17.56-42.16,16.5-18.79,36.87-27.89,45.48-20.32s2.23,28.94-14.28,47.73-36.87,27.89-45.48,20.31a9.94,9.94,0,0,1-2.46-3.29.08.08,0,0,1,0-.06Z" style="fill:none;stroke:#333030;stroke-miterlimit:10;stroke-width:2.4709428459918px"/></svg>