<svg id="Ebene_2" data-name="Ebene 2" xmlns="http://www.w3.org/2000/svg" viewBox="0 0 258 258"><rect x="-72.57" y="-249.21" width="399.15" height="316.43" style="fill:none"/><path d="M191.31-247.45c73.73,0,133.5,64.25,133.5,143.5S265,39.55,191.31,39.55c-54,0-100-39.07-120.26-81.12-14.24-29.6,5.47-58.59,5.76-64.88v0c0-3.54-17.92-25.66-5.89-51.74C87.29-193.72,131-247.45,191.31-247.45Z" style="fill:none;stroke:#333030;stroke-miterlimit:10;stroke-width:3.52837865828711px"/><path d="M44,65.24C30.21,67.86,14.41,45.62,8.7,15.56S9.53-41,23.31-43.6,52.9-24,58.61,6.08,57.78,62.63,44,65.24Z" style="fill:none;stroke:#333030;stroke-miterlimit:10;stroke-width:3.52837865828711px"/><rect x="245.9" y="5.99" width="279.53" height="221.6" transform="translate(117.39 417.46) rotate(-65.11)" style="fill:none"/></svg>