<svg id="Ebene_2" data-name="Ebene 2" xmlns="http://www.w3.org/2000/svg" viewBox="0 0 1243.27 1047.69"><rect x="-885.46" y="-275.57" width="316.43" height="399.15" transform="translate(726.28 133.25) rotate(-55.74)" style="fill:none"/><polyline points="185.62 656.96 221.25 650.43 225.4 649.67" style="fill:none;stroke:#333030;stroke-miterlimit:10;stroke-width:5px"/><line x1="112.03" y1="670.45" x2="182.22" y2="657.58" style="fill:none;stroke:#333030;stroke-miterlimit:10;stroke-width:5px"/><path d="M-795.73-110.52a17.47,17.47,0,0,1-3.31.62Z" transform="translate(981.26 767.49)" style="fill:none;stroke:#333030;stroke-miterlimit:10;stroke-width:4.11857944085762px"/><path d="M-586-169.09c60.94,41.51,74.16,128.26,29.54,193.76S-686.67,109.61-747.6,68.1c-44.65-30.41-60.68-88.61-53.72-134.75C-796.42-99.13-763.81-112-760-117l0,0c2-2.91-.36-31.3,24.26-46.08C-702.24-183.25-635.9-203.07-586-169.09Z" transform="translate(981.26 767.49)" style="fill:none;stroke:#333030;stroke-miterlimit:10;stroke-width:3.52837865828711px"/><path d="M-799-109.9c-14.52,1.36-36.9-12.07-55.31-34.55-22.64-27.62-30.72-58.42-18-68.81s41.29,3.6,63.92,31.22,30.72,58.43,18.05,68.81a14.51,14.51,0,0,1-5.22,2.7h-.08Z" transform="translate(981.26 767.49)" style="fill:none;stroke:#333030;stroke-miterlimit:10;stroke-width:3.52837865828711px"/><path d="M-883.81,6.39c-12.87-5.6-13.41-32.87-1.2-60.93s32.51-46.26,45.38-40.67,13.41,32.88,1.2,60.94S-870.95,12-883.81,6.39Z" transform="translate(981.26 767.49)" style="fill:none;stroke:#333030;stroke-miterlimit:10;stroke-width:3.52837865828711px"/><rect x="625.69" y="508.28" width="399.15" height="316.43" style="fill:none"/><polyline points="749.29 676.46 775.07 651 778.07 648.04" style="fill:none;stroke:#333030;stroke-miterlimit:10;stroke-width:5px"/><line x1="696.07" y1="729.04" x2="746.84" y2="678.89" style="fill:none;stroke:#333030;stroke-miterlimit:10;stroke-width:5px"/><path d="M-232-91a17.29,17.29,0,0,1-2.39,2.37Z" transform="translate(981.26 767.49)" style="fill:none;stroke:#333030;stroke-miterlimit:10;stroke-width:4.11857944085762px"/><path d="M-91.69-257.45c73.73,0,133.5,64.25,133.5,143.5S-18,29.55-91.69,29.55c-54,0-100-39.07-120.26-81.12-14.24-29.6,5.47-58.59,5.76-64.88v0c0-3.54-17.92-25.66-5.89-51.74C-195.71-203.72-152-257.45-91.69-257.45Z" transform="translate(981.26 767.49)" style="fill:none;stroke:#333030;stroke-miterlimit:10;stroke-width:3.52837865828711px"/><path d="M-234.42-88.6c-11.23,9.3-37.29,10.8-65.16,2.59-34.26-10.08-58.28-31-53.66-46.7s36.15-20.28,70.41-10.19,58.28,31,53.65,46.7A14.39,14.39,0,0,1-232-91,.17.17,0,0,1-232-91Z" transform="translate(981.26 767.49)" style="fill:none;stroke:#333030;stroke-miterlimit:10;stroke-width:3.52837865828711px"/><path d="M-239,55.24c-13.79,2.62-29.59-19.62-35.3-49.68s.83-56.54,14.61-59.16S-230.1-34-224.39-3.92-225.22,52.63-239,55.24Z" transform="translate(981.26 767.49)" style="fill:none;stroke:#333030;stroke-miterlimit:10;stroke-width:3.52837865828711px"/><rect x="-162.43" y="-679.43" width="179.46" height="226.37" transform="translate(1087.88 743.24) rotate(-10.99)" style="fill:none"/><polyline points="894.8 160.02 911.76 171.62 913.74 172.97" style="fill:none;stroke:#333030;stroke-miterlimit:10;stroke-width:2.83567160367966px"/><line x1="859.77" y1="136.08" x2="893.18" y2="158.92" style="fill:none;stroke:#333030;stroke-miterlimit:10;stroke-width:2.83567160367966px"/><path d="M-86.5-607.49a10.06,10.06,0,0,1-1.58-1.08Z" transform="translate(981.26 767.49)" style="fill:none;stroke:#333030;stroke-miterlimit:10;stroke-width:2.33578775358776px"/><path d="M21.36-547.36c8,41.05-21.34,81.27-65.46,89.84s-86.36-17.76-94.33-58.81c-5.84-30.07,10.94-59.92,32.16-75.72,14.94-11.13,33.21-3.29,36.75-3.81h0c2-.36,12.35-12.75,28.17-8.87C-19.8-599.46,14.83-581,21.36-547.36Z" transform="translate(981.26 767.49)" style="fill:none;stroke:#333030;stroke-miterlimit:10;stroke-width:2.00106463366682px"/><path d="M-88.08-608.57c-6.39-5.24-10-19.59-8.49-36,1.91-20.17,10.95-35.8,20.2-34.93s15.2,17.94,13.29,38.1-11,35.8-20.2,34.92a8,8,0,0,1-3.18-1l0,0Z" transform="translate(981.26 767.49)" style="fill:none;stroke:#333030;stroke-miterlimit:10;stroke-width:2.00106463366682px"/><path d="M-168.66-595.56c-3-7.4,7.73-18.6,23.85-25s31.56-5.65,34.51,1.74-7.72,18.59-23.84,25S-165.71-588.17-168.66-595.56Z" transform="translate(981.26 767.49)" style="fill:none;stroke:#333030;stroke-miterlimit:10;stroke-width:2.00106463366682px"/><rect x="-37.1" y="-4.01" width="279.53" height="221.6" transform="translate(943.85 922.45) rotate(-65.11)" style="fill:none"/><polyline points="1099.99 823.08 1108.57 846.96 1109.56 849.74" style="fill:none;stroke:#333030;stroke-miterlimit:10;stroke-width:3.50152730941772px"/><line x1="1082.28" y1="773.77" x2="1099.17" y2="820.8" style="fill:none;stroke:#333030;stroke-miterlimit:10;stroke-width:3.50152730941772px"/><path d="M118.71,55.53a11.56,11.56,0,0,1-.8-2.21Z" transform="translate(981.26 767.49)" style="fill:none;stroke:#333030;stroke-miterlimit:10;stroke-width:2.88426367763387px"/><path d="M183.09,193.76c-21.73,46.83-80.17,65.86-130.51,42.5S-21,156,.78,109.15c15.92-34.31,54.31-52,87-52.48,23-.32,35.61,20.75,39.52,22.79h0c2.24,1.06,21.58-3.82,34.6,11.51C179.62,111.84,200.89,155.41,183.09,193.76Z" transform="translate(981.26 767.49)" style="fill:none;stroke:#333030;stroke-miterlimit:10;stroke-width:2.4709428459918px"/><path d="M117.91,53.32c-2.6-9.88,4.13-26.88,17.56-42.16C152-7.63,172.34-16.73,181-9.16s2.23,28.94-14.28,47.73S129.8,66.46,121.19,58.88a9.94,9.94,0,0,1-2.46-3.29.08.08,0,0,1,0-.06Z" transform="translate(981.26 767.49)" style="fill:none;stroke:#333030;stroke-miterlimit:10;stroke-width:2.4709428459918px"/><path d="M27.88,8c2.4-9.53,21.19-13,42-7.77S105.52,17.42,103.12,27s-21.18,13-42,7.77S25.48,17.53,27.88,8Z" transform="translate(981.26 767.49)" style="fill:none;stroke:#333030;stroke-miterlimit:10;stroke-width:2.4709428459918px"/><rect x="-751.82" y="-704.21" width="417.92" height="527.17" transform="translate(1115.89 499.66) rotate(-24.76)" style="fill:none"/><polyline points="384.43 241.27 429.22 258.1 434.43 260.06" style="fill:none;stroke:#333030;stroke-miterlimit:10;stroke-width:6.60373747348785px"/><line x1="291.93" y1="206.52" x2="380.16" y2="239.67" style="fill:none;stroke:#333030;stroke-miterlimit:10;stroke-width:6.60373747348785px"/><path d="M-596.94-526.26a23.56,23.56,0,0,1-4.17-1.56Z" transform="translate(981.26 767.49)" style="fill:none;stroke:#333030;stroke-miterlimit:10;stroke-width:5.43960347822563px"/><path d="M-319.65-450c40.78,88.43-3.22,195.65-98.27,239.48s-205.17,7.68-245.95-80.75c-29.88-64.78-8.47-141.59,30.78-189.1,27.62-33.45,73.3-25.84,81-29l.05,0c4.26-1.92,20.86-35.68,58.79-35.68C-441.63-545.06-353-522.42-319.65-450Z" transform="translate(981.26 767.49)" style="fill:none;stroke:#333030;stroke-miterlimit:10;stroke-width:4.66009727327708px"/><path d="M-601.11-527.82c-17.36-8.32-33.57-38.75-39.14-76.72-6.86-46.66,4.93-87,26.33-90.18s44.32,32.14,51.16,78.81-4.93,87-26.33,90.17a19,19,0,0,1-7.75-.48.26.26,0,0,1-.1,0Z" transform="translate(981.26 767.49)" style="fill:none;stroke:#333030;stroke-miterlimit:10;stroke-width:4.66009727327708px"/><path d="M-776.16-453.75c-10.77-15.09,7.17-46.34,40.06-69.82s68.28-30.28,79-15.2-7.17,46.34-40.06,69.82S-765.4-438.67-776.16-453.75Z" transform="translate(981.26 767.49)" style="fill:none;stroke:#333030;stroke-miterlimit:10;stroke-width:4.66009727327708px"/></svg>