<svg id="Ebene_2" data-name="Ebene 2" xmlns="http://www.w3.org/2000/svg" viewBox="0 0 258 258"><rect x="-67.57" y="-248.21" width="399.15" height="316.43" style="fill:none"/><path d="M196.31-246.45c73.73,0,133.5,64.25,133.5,143.5S270,40.55,196.31,40.55c-54,0-100-39.07-120.26-81.12-14.24-29.6,5.47-58.59,5.76-64.88v0c0-3.54-17.92-25.66-5.89-51.74C92.29-192.72,136-246.45,196.31-246.45Z" style="fill:none;stroke:#333030;stroke-miterlimit:10;stroke-width:3.52837865828711px"/><path d="M49,66.24C35.21,68.86,19.41,46.62,13.7,16.56S14.53-40,28.31-42.6,57.9-23,63.61,7.08,62.78,63.63,49,66.24Z" style="fill:none;stroke:#333030;stroke-miterlimit:10;stroke-width:3.52837865828711px"/><rect x="250.9" y="6.99" width="279.53" height="221.6" transform="translate(119.38 422.58) rotate(-65.11)" style="fill:none"/></svg>