<svg id="Ebene_2" data-name="Ebene 2" xmlns="http://www.w3.org/2000/svg" viewBox="0 0 258 258"><rect x="-85.46" y="248.43" width="316.43" height="399.15" transform="translate(-338.46 255.89) rotate(-55.74)" style="fill:none"/><rect x="48.18" y="-180.21" width="417.92" height="527.17" transform="translate(-11.28 115.35) rotate(-24.76)" style="fill:none"/><polyline points="203.16 -2.22 247.96 14.61 253.17 16.57" style="fill:none;stroke:#333030;stroke-miterlimit:10;stroke-width:6.60373747348785px"/><path d="M203.06-2.26a23.56,23.56,0,0,1-4.17-1.56Z" style="fill:none;stroke:#333030;stroke-miterlimit:10;stroke-width:5.43960347822563px"/><path d="M480.35,74c40.78,88.43-3.22,195.65-98.27,239.48s-205.17,7.68-245.95-80.75c-29.88-64.78-8.47-141.59,30.78-189.1,27.62-33.45,73.3-25.84,81-29l.05,0c4.26-1.92,20.86-35.68,58.79-35.68C358.37-21.06,447,1.58,480.35,74Z" style="fill:none;stroke:#333030;stroke-miterlimit:10;stroke-width:4.66009727327708px"/><path d="M198.89-3.82c-17.36-8.32-33.57-38.75-39.14-76.72-6.86-46.66,4.93-87,26.33-90.18s44.32,32.14,51.16,78.81-4.93,87-26.33,90.17a19,19,0,0,1-7.75-.48.26.26,0,0,1-.1,0Z" style="fill:none;stroke:#333030;stroke-miterlimit:10;stroke-width:4.66009727327708px"/><path d="M23.84,70.25C13.07,55.16,31,23.91,63.9.43s68.28-30.28,79-15.2-7.17,46.34-40.06,69.82S34.6,85.33,23.84,70.25Z" style="fill:none;stroke:#333030;stroke-miterlimit:10;stroke-width:4.66009727327708px"/></svg>