<svg xmlns="http://www.w3.org/2000/svg" viewBox="0 0 284 103"><g id="Ebene_2_Kopie_2_Kopie" data-name="Ebene 2 Kopie 2 Kopie"><circle cx="45.5" cy="57.5" r="45.5" style="fill:#7af471"/></g><g id="Ebene_19" data-name="Ebene 19"><path d="M71.11,35.13a26,26,0,1,1-52.07,0c0-.21,0-.42,0-.63H71.11Z" transform="translate(193.5 0.5)" style="fill:#798e78"/><path d="M83.5,39.13c0,4.06-4.64,10.48-9.81,13.25-2.39,1.28-5.14-1-6.9-2.46a20.84,20.84,0,0,0,5.73-14.09h-1a11.42,11.42,0,0,1,2.21-.22C79.08,35.61,83.55,34.52,83.5,39.13Z" transform="translate(193.5 0.5)" style="fill:none;stroke:#0ef0e2;stroke-miterlimit:10;stroke-width:2px;fill-rule:evenodd"/><rect x="205" y="61" width="66" height="8" rx="2.85" style="fill:#798e78"/></g><g id="Ebene_21" data-name="Ebene 21"><circle cx="239" cy="45" r="44" style="fill:none;stroke:#0ef0e2;stroke-miterlimit:10;stroke-width:2px"/></g></svg>