<svg xmlns="http://www.w3.org/2000/svg" viewBox="0 0 250 250"><g id="Ebene_2" data-name="Ebene 2"><rect x="-353.57" y="-267.21" width="399.15" height="316.43" style="fill:none"/><path d="M-89.69-265.45c73.73,0,133.5,64.25,133.5,143.5S-16,21.55-89.69,21.55c-54,0-100-39.07-120.26-81.12-14.24-29.6,5.47-58.59,5.76-64.88v0c0-3.54-17.92-25.66-5.89-51.74C-193.71-211.72-150-265.45-89.69-265.45Z" style="fill:none;stroke:#333030;stroke-miterlimit:10;stroke-width:3.52837865828711px"/><rect x="-35.1" y="-12.01" width="279.53" height="221.6" transform="translate(-29 152.15) rotate(-65.11)" style="fill:none"/><polyline points="120.73 47.59 129.3 71.47 130.3 74.25" style="fill:none;stroke:#333030;stroke-miterlimit:10;stroke-width:3.50152730941772px"/><line x1="103.02" y1="-1.72" x2="119.91" y2="45.32" style="fill:none;stroke:#333030;stroke-miterlimit:10;stroke-width:3.50152730941772px"/><path d="M120.71,47.53a11.56,11.56,0,0,1-.8-2.21Z" style="fill:none;stroke:#333030;stroke-miterlimit:10;stroke-width:2.88426367763387px"/><path d="M185.09,185.76c-21.73,46.83-80.17,65.86-130.51,42.5S-19,148,2.78,101.15c15.92-34.31,54.31-52,87-52.48,23-.32,35.61,20.75,39.52,22.79h0c2.24,1.06,21.58-3.82,34.6,11.51C181.62,103.84,202.89,147.41,185.09,185.76Z" style="fill:none;stroke:#333030;stroke-miterlimit:10;stroke-width:2.4709428459918px"/><path d="M119.91,45.32c-2.6-9.88,4.13-26.88,17.56-42.16C154-15.63,174.34-24.73,183-17.16s2.23,28.94-14.28,47.73S131.8,58.46,123.19,50.88a9.94,9.94,0,0,1-2.46-3.29.08.08,0,0,1,0-.06Z" style="fill:none;stroke:#333030;stroke-miterlimit:10;stroke-width:2.4709428459918px"/><path d="M29.88,0c2.4-9.53,21.19-13,42-7.77S107.52,9.42,105.12,19s-21.18,13-42,7.77S27.48,9.53,29.88,0Z" style="fill:none;stroke:#333030;stroke-miterlimit:10;stroke-width:2.4709428459918px"/></g><g id="_12_Kopie" data-name="12 Kopie"><polyline points="-1020.5 -518.5 -1019 -518.5 -785.54 -517.76 -532.5 -516.97 -273.99 -516.16 1.5 -515.3 256.5 -514.5 258.5 -256.5 1.5 -257.1 -273.49 -257.75 -532.5 -258.36 -785.58 -258.95 -1018.49 -259.5 -1019.5 -259.5 -1019.5 3.5 -1017.98 3.5 -785.62 3.32 -532.5 3.12 -272.98 2.91 1.5 2.7 256.5 2.5 258.5 251.5 -700.84 247.74 -785.66 247.41 -1017.5 246.5 -1017.98 3.5 -1018.49 -259.5 -1019 -518.5 -1019.5 -775.5 -785.5 -775.13 -532.5 -774.74 -274.5 -774.33 1.5 -773.9 1.5 -775.5 256.5 -773.5 1.5 -773.9 1.5 -515.3 1.5 -257.1 1.5 2.7 1.5 248.5 -272.5 245.5 -272.98 2.91 -273.49 -257.75 -273.99 -516.16 -274.5 -774.33 -274.5 -775.5 -532.5 -776.5 -532.5 -774.74 -532.5 -516.97 -532.5 -258.36 -532.5 3.12 -532.5 245.5 -700.84 247.74 -785.66 248.87 -785.66 247.41 -785.62 3.32 -785.58 -258.95 -785.54 -517.76 -785.5 -775.13 -785.5 -776.5" style="fill:none;stroke:#1e0f0f;stroke-miterlimit:10"/></g></svg>