<svg xmlns="http://www.w3.org/2000/svg" xmlns:xlink="http://www.w3.org/1999/xlink" viewBox="0 0 1107 961"><defs><style>.cls-1{fill:none;stroke-linecap:round;stroke-width:5px;}.cls-1,.cls-3{stroke:#333030;stroke-miterlimit:10;}.cls-1,.cls-2{opacity:0.1;}.cls-3{fill:#fff;stroke-width:4.17px;}</style></defs><g id="Ebene_6_Kopie_Kopie" data-name="Ebene 6 Kopie Kopie"><line class="cls-1" x1="419" y1="245.3" x2="482.27" y2="177.66"/><g class="cls-2"><image width="332" height="360" transform="translate(436)" xlink:href="bg-moving-svg1.png"/></g><g class="cls-2"><image width="183" height="165" transform="translate(301 90)" xlink:href="bg-moving-svg2.png"/></g><g class="cls-2"><image width="139" height="176" transform="translate(379 211)" xlink:href="bg-moving-svg3.png"/></g><line class="cls-1" x1="759.77" y1="362.21" x2="842.29" y2="310.24"/><g class="cls-2"><image width="316" height="334" transform="translate(791 168)" xlink:href="bg-moving-svg4.png"/></g><g class="cls-2"><image width="120" height="175" transform="translate(727 316)" xlink:href="bg-moving-svg5.png"/></g><path class="cls-3" d="M234.63,374.29" transform="translate(-29 43.3)"/><line class="cls-1" x1="235.13" y1="389.37" x2="213.4" y2="455.77"/><g class="cls-2"><image width="304" height="302" transform="translate(0 382)" xlink:href="bg-moving-svg6.png"/></g><g class="cls-2"><image width="177" height="133" transform="translate(193 344)" xlink:href="bg-moving-svg7.png"/></g><g class="cls-2"><image width="159" height="129" transform="translate(101 325)" xlink:href="bg-moving-svg8.png"/></g><line class="cls-1" x1="676" y1="816.3" x2="743" y2="749.3"/><g class="cls-2"><image width="342" height="370" transform="translate(696 565)" xlink:href="bg-moving-svg9.png"/></g><g class="cls-2"><image width="203" height="144" transform="translate(551 675)" xlink:href="bg-moving-svg10.png"/></g><g class="cls-2"><image width="130" height="187" transform="translate(642 774)" xlink:href="bg-moving-svg11.png"/></g><line class="cls-1" x1="439.62" y1="636.23" x2="396.95" y2="698.78"/><g class="cls-2"><image width="347" height="349" transform="translate(142 610)" xlink:href="bg-moving-svg12.png"/></g><g class="cls-2"><image width="184" height="126" transform="translate(387 609)" xlink:href="bg-moving-svg13.png"/></g><g class="cls-2"><image width="144" height="164" transform="translate(314 536)" xlink:href="bg-moving-svg14.png"/></g></g><g id="free"><g class="cls-2"><image width="120" height="175" transform="translate(402 359)" xlink:href="bg-moving-svg15.png"/></g></g></svg>