<svg id="m" xmlns="http://www.w3.org/2000/svg" viewBox="0 0 1172.28 952.72"><rect x="95.82" y="421.61" width="316.43" height="399.15" transform="translate(-402.39 489.45) rotate(-55.74)" style="fill:none"/><line x1="112.01" y1="608.2" x2="220.14" y2="585.98" style="fill:none;stroke:#333030;stroke-linecap:round;stroke-miterlimit:10;stroke-width:5px"/><path d="M185.53,586.72a17.72,17.72,0,0,1-3.31.62Z" transform="translate(-0.02 8)" style="fill:none;stroke:#333030;stroke-miterlimit:10;stroke-width:4.119999885559082px"/><path d="M395.26,528.15c60.94,41.51,74.16,128.26,29.54,193.76s-130.21,84.94-191.14,43.43C189,734.93,173,676.73,179.94,630.59c4.9-32.48,37.51-45.35,41.32-50.35h0c2-2.91-.36-31.3,24.26-46.08C279,514,345.36,494.17,395.26,528.15Z" transform="translate(-0.02 8)" style="fill:none;stroke:#333030;stroke-miterlimit:10;stroke-width:3.5299999713897705px"/><path d="M182.26,580.34c-14.52,1.36-36.9-12.07-55.31-34.55-22.64-27.62-30.72-58.42-18-68.81s41.29,3.6,63.92,31.22,30.72,58.43,18,68.81a14.37,14.37,0,0,1-5.22,2.7h-.08Z" transform="translate(-0.02 8)" style="fill:none;stroke:#3a7b3a;stroke-miterlimit:10;stroke-width:3.5299999713897705px"/><path d="M97.45,703.63C84.58,698,84,670.76,96.25,642.7s32.51-46.26,45.38-40.67S155,634.91,142.83,663,110.31,709.24,97.45,703.63Z" transform="translate(-0.02 8)" style="fill:none;stroke:#3d6631;stroke-miterlimit:10;stroke-width:3.5299999713897705px"/><rect x="625.69" y="438.03" width="399.15" height="316.43" transform="translate(-42.47 71.67) rotate(-4.31)" style="fill:none"/><line x1="701.12" y1="676.32" x2="773.03" y2="593.96" style="fill:none;stroke:#333030;stroke-linecap:round;stroke-miterlimit:10;stroke-width:5px"/><path d="M750.23,611.92a17.28,17.28,0,0,1-2.21,2.54Z" transform="translate(-0.02 8)" style="fill:none;stroke:#333030;stroke-miterlimit:10;stroke-width:4.119999885559082px"/><path d="M877.64,435.4c73.52-5.54,138,54,143.9,133.07S972.72,716.05,899.19,721.59c-53.84,4.06-102.65-31.45-126-71.86-16.42-28.44,1.05-58.83.87-65.13h0c-.26-3.53-19.8-24.24-9.76-51.15C778,496.79,817.5,439.93,877.64,435.4Z" transform="translate(-0.02 8)" style="fill:none;stroke:#333030;stroke-miterlimit:10;stroke-width:3.5299999713897705px"/><path d="M743,614.5c-10.5,10.11-36.37,13.57-64.78,7.47-34.92-7.48-60.44-26.53-57-42.54s34.52-22.94,69.44-15.45,60.44,26.54,57,42.54a14.49,14.49,0,0,1-2.42,5.4h0Z" transform="translate(-0.02 8)" style="fill:none;stroke:#333030;stroke-miterlimit:10;stroke-width:3.5299999713897705px"/><path d="M754.23,758.27c-13.56,3.65-31-17.34-38.93-46.89s-3.42-56.44,10.12-60.09,31,17.35,38.93,46.89S767.77,754.64,754.23,758.27Z" transform="translate(-0.02 8)" style="fill:none;stroke:#333030;stroke-miterlimit:10;stroke-width:3.5299999713897705px"/><rect x="795.38" y="77.28" width="226.37" height="179.46" transform="translate(584.47 1040.09) rotate(-79.88)" style="fill:none"/><line x1="893.3" y1="106.73" x2="922.76" y2="149.69" style="fill:none;stroke:#333030;stroke-linecap:round;stroke-miterlimit:10;stroke-width:3.6564px"/><path d="M910.55,123.55a10.08,10.08,0,0,1-1.09-1.58Z" transform="translate(-0.02 8)" style="fill:none;stroke:#333030;stroke-miterlimit:10;stroke-width:2.3399999141693115px"/><path d="M989.36,221.65c-7.32,41.18-49.18,68.13-93.42,60.23S821.77,234.21,829.12,193c5.38-30.15,31.79-51.95,57.27-59,18-5,32.17,8.89,35.66,9.68h0c2,.39,16.11-7.44,29.47,1.87C969.73,158.22,995.39,187.91,989.36,221.65Z" transform="translate(-0.02 8)" style="fill:none;stroke:#d09200;stroke-miterlimit:10;stroke-width:2px;opacity:0.6"/><path d="M914.18,122.47c-2.61-6.89,1.07-18.73,9.68-29.4C934.49,80,948.66,73.69,955.44,79s3.72,20.21-6.9,33.3S923.75,131.63,917,126.36a8.11,8.11,0,0,1-2-2.31h0Z" transform="translate(-0.02 8)" style="fill:none;stroke:#21a721;stroke-miterlimit:10;stroke-width:1.7585101127624512px"/><path d="M832.6,111.08c-.13-8,13.91-14.56,31.26-14.73s31.47,6.1,31.57,14.06-13.9,14.56-31.25,14.73S832.69,119,832.6,111.08Z" transform="translate(-0.02 8)" style="fill:none;stroke:#00a700;stroke-miterlimit:10;stroke-width:2px"/><path d="M1162.26,688.08c8.62,7.57,2.23,28.94-14.28,47.73s-36.87,27.89-45.48,20.31a9.84,9.84,0,0,1-2.46-3.29.06.06,0,0,1,0-.06l-.8-2.21c-2.6-9.88,4.13-26.88,17.56-42.16,15-17.11,33.25-26.18,42.89-22A9.91,9.91,0,0,1,1162.26,688.08Z" transform="translate(-0.02 8)" style="fill:#2ba508"/><path d="M1051.11,697.47c20.77,5.23,35.67,17.19,33.27,26.72s-21.18,13-42,7.77-35.68-17.19-33.28-26.72S1030.33,692.24,1051.11,697.47Z" transform="translate(-0.02 8)" style="fill:#2ba508"/><polyline points="1099.97 760.83 1108.54 784.71 1109.54 787.49" style="fill:none;stroke:#333030;stroke-miterlimit:10;stroke-width:3.5px"/><line x1="1082.26" y1="711.52" x2="1099.15" y2="758.56" style="fill:none;stroke:#333030;stroke-miterlimit:10;stroke-width:3.5px"/><path d="M1100,752.77a11.68,11.68,0,0,1-.8-2.21" transform="translate(-0.02 8)" style="fill:none;stroke:#333030;stroke-miterlimit:10;stroke-width:2.880000114440918px"/><path d="M1164.35,891c-21.73,46.83-80.17,65.86-130.51,42.5S960.26,853.24,982,806.39c15.92-34.31,54.31-52,87-52.48,23-.32,35.61,20.75,39.52,22.79h0c2.24,1.06,21.58-3.82,34.6,11.51C1160.88,809.08,1182.15,852.65,1164.35,891Z" transform="translate(-0.02 8)" style="fill:none;stroke:#333030;stroke-miterlimit:10;stroke-width:2.4700000286102295px"/><path d="M1099.17,750.56c-2.6-9.88,4.13-26.88,17.56-42.16,15-17.11,33.25-26.18,42.89-22a9.88,9.88,0,0,1,2.59,1.64c8.62,7.57,2.23,28.94-14.28,47.73s-36.87,27.89-45.48,20.31a9.84,9.84,0,0,1-2.46-3.29.06.06,0,0,1,0-.06Z" transform="translate(-0.02 8)" style="fill:none;stroke:#333030;stroke-miterlimit:10;stroke-width:2.4700000286102295px"/><path d="M1009.14,705.24c2.4-9.53,21.19-13,42-7.77s35.67,17.19,33.27,26.72-21.18,13-42,7.77S1006.74,714.77,1009.14,705.24Z" transform="translate(-0.02 8)" style="fill:none;stroke:#333030;stroke-miterlimit:10;stroke-width:2.4700000286102295px"/><path d="M324.2,158.47c10.77,15.09-7.17,46.34-40.06,69.82s-68.28,30.28-79,15.2,7.17-46.34,40.06-69.82S313.44,143.39,324.2,158.47Z" transform="translate(-0.02 8)" style="fill:#2ba508"/><path d="M429.26,187.85c4.26-1.92,20.86-35.68,58.79-35.68,51.62,0,140.21,22.65,173.6,95.05,40.78,88.43-3.22,195.65-98.27,239.48s-205.17,7.68-246-80.75c-29.88-64.78-8.47-141.59,30.78-189.1,27.62-33.45,73.3-25.84,81-29Z" transform="translate(-0.02 8)" style="fill:#cad9c6"/><line x1="291.91" y1="144.27" x2="426.32" y2="192.03" style="fill:none;stroke:#333030;stroke-linecap:round;stroke-miterlimit:10;stroke-width:6px"/><path d="M661.61,247.24c40.78,88.43-3.22,195.65-98.27,239.48s-205.17,7.68-246-80.75c-29.88-64.78-8.47-141.59,30.78-189.1,27.62-33.45,73.3-25.84,81-29h0c4.26-1.92,20.86-35.68,58.79-35.68C539.63,152.18,628.26,174.82,661.61,247.24Z" transform="translate(-0.02 8)" style="fill:none;stroke:#333030;stroke-miterlimit:10;stroke-width:4.659999847412109px"/><path d="M380.15,161.42C362.79,153.1,346.58,122.67,341,84.7c-6.25-42.54,3-79.85,20.89-88.5a18.88,18.88,0,0,1,5.44-1.68c21.4-3.14,44.32,32.14,51.16,78.81s-4.93,87-26.33,90.17a18.94,18.94,0,0,1-7.75-.48h-.1Z" transform="translate(-0.02 8)" style="fill:none;stroke:#333030;stroke-miterlimit:10;stroke-width:4.659999847412109px"/><path d="M205.1,243.49c-10.77-15.09,7.17-46.34,40.06-69.82s68.28-30.28,79-15.2S317,204.81,284.1,228.29,215.86,258.57,205.1,243.49Z" transform="translate(-0.02 8)" style="fill:none;stroke:#333030;stroke-miterlimit:10;stroke-width:4.659999847412109px"/><path d="M905.59,271.47c0,1.86-3,.71-6.75.71s-6.75,1.15-6.75-.71,3-3.38,6.75-3.38S905.59,269.6,905.59,271.47Z" transform="translate(-0.02 8)" style="opacity:0.6"/></svg>