<svg xmlns="http://www.w3.org/2000/svg" viewBox="0 0 28 21.26"><g id="Ebene_2" data-name="Ebene 2"><rect y="18.37" width="26" height="2.89" rx="1.44" style="fill:#fcfa8f"/></g><g id="Ebene_3_Kopie" data-name="Ebene 3 Kopie"><path d="M25.5,12.32a7.45,7.45,0,0,1-2.05,5A11.41,11.41,0,0,1,15,20.82c-5.8,0-10.5-3.81-10.5-8.5Z" transform="translate(-2 -3.13)" style="fill:#fcfa8f;fill-rule:evenodd"/><path d="M29.5,13.5c0,1.45-1.66,3.75-3.51,4.74-.86.46-1.84-.34-2.47-.88a7.45,7.45,0,0,0,2.05-5H25.2a4.07,4.07,0,0,1,.79-.08C27.92,12.24,29.52,11.85,29.5,13.5Z" transform="translate(-2 -3.13)" style="fill:none;stroke:#fcfa8f;stroke-miterlimit:10;fill-rule:evenodd"/></g><g id="Ebene_5" data-name="Ebene 5"><polyline points="4.5 0.37 5.5 1.37 4.5 3.59 5.5 5.37" style="fill:none;stroke:#fcfa8f;stroke-linecap:round;stroke-linejoin:round;stroke-width:0.7459079037795565px"/><polyline points="8.5 0.37 9.5 1.37 8.5 3.59 9.5 5.37" style="fill:none;stroke:#fcfa8f;stroke-linecap:round;stroke-linejoin:round;stroke-width:0.7459079037795565px"/><polyline points="12.5 0.37 13.5 1.37 12.5 3.59 13.5 5.37" style="fill:none;stroke:#fcfa8f;stroke-linecap:round;stroke-linejoin:round;stroke-width:0.7459079037795565px"/><polyline points="16.5 0.37 17.5 1.37 16.5 3.59 17.5 5.37" style="fill:none;stroke:#fcfa8f;stroke-linecap:round;stroke-linejoin:round;stroke-width:0.7459079037795565px"/><polyline points="20.5 0.37 21.5 1.37 20.5 3.59 21.5 5.37" style="fill:none;stroke:#fcfa8f;stroke-linecap:round;stroke-linejoin:round;stroke-width:0.7459079037795565px"/></g></svg>