<svg xmlns="http://www.w3.org/2000/svg" viewBox="0 0 102 102"><g id="Ebene_4" data-name="Ebene 4"><g style="opacity:0"><circle cx="51" cy="51" r="51" style="fill:#7af471"/></g></g><g id="Ebene_3" data-name="Ebene 3"><path d="M94.42,26c-3.26,2.71-6.65,5.17-10.06,7.61s-6.89,4.75-10.4,7-7.07,4.45-10.65,6.6l-2.69,1.6a19.8,19.8,0,0,1-2.78,1.45,14.64,14.64,0,0,1-3.1.9,11.19,11.19,0,0,1-3.58.06l-.32-.54a11.26,11.26,0,0,1,1.82-3.09A14.48,14.48,0,0,1,55,45.38a19.67,19.67,0,0,1,2.63-1.7l2.72-1.56c3.63-2.06,7.28-4.08,11-6s7.44-3.82,11.22-5.61,7.62-3.5,11.58-5Z" style="fill:#0ef0e2"/></g></svg>