<svg id="Ebene_1_Kopie" data-name="Ebene 1 Kopie" xmlns="http://www.w3.org/2000/svg" viewBox="0 0 734.88 770.11"><defs><style>.cls-1{fill:#777;}</style></defs><path class="cls-1" d="M131.27,366.58a207.57,207.57,0,0,0,22.62,24.16c1.07,1,2.65-.61,1.58-1.59A206,206,0,0,1,132.85,365c-.91-1.13-2.49.46-1.6,1.59Z" transform="translate(0 0.01)"/><path class="cls-1" d="M180.75,403.16l28.62,29.41c1,1,2.6-.56,1.59-1.59l-28.6-29.4c-1-1-2.6.54-1.59,1.58Z" transform="translate(0 0.01)"/><path class="cls-1" d="M247.25,410.59l23.49,27c1,1.1,2.53-.5,1.59-1.58L248.87,409c-1-1.09-2.54.5-1.6,1.59Z" transform="translate(0 0.01)"/><path class="cls-1" d="M265.09,558.52l25.38,29.71c1.25,1.47,3.37-.66,2.12-2.12L267.22,556.4C266,554.92,263.85,557.05,265.09,558.52Z" transform="translate(0 0.01)"/><path class="cls-1" d="M4.4,686.72,40.33,728.6l10.24,11.94c2.39,2.79,7.06,4.4,10.61,4.4a15.26,15.26,0,0,0,10.6-4.4c2.63-2.85,4.58-6.61,4.4-10.6l-.54-4a15,15,0,0,0-3.86-6.62L35.86,677.44,25.62,665.5c-2.39-2.79-7.06-4.39-10.61-4.39A15.28,15.28,0,0,0,4.4,665.5C1.78,668.36-.17,672.11,0,676.11l.54,4a14.94,14.94,0,0,0,3.85,6.62Z" transform="translate(0 0.01)"/><path class="cls-1" d="M178,731.87l36.17,33.84a15.69,15.69,0,0,0,10.61,4.39,15.28,15.28,0,0,0,10.61-4.39c2.62-2.86,4.57-6.61,4.39-10.61a15.21,15.21,0,0,0-4.39-10.6l-36.17-33.84a15.69,15.69,0,0,0-10.61-4.39A15.28,15.28,0,0,0,178,710.66c-2.62,2.86-4.57,6.61-4.39,10.61A15.21,15.21,0,0,0,178,731.87Z" transform="translate(0 0.01)"/><path class="cls-1" d="M232.53,718.85l5,2.54a11.22,11.22,0,0,0,5.58,1.78,11.53,11.53,0,0,0,6-.27,16.83,16.83,0,0,0,9-6.9l1.51-3.58a15.08,15.08,0,0,0,0-8l-1.51-3.59a15.07,15.07,0,0,0-5.38-5.38l-5-2.54a11.22,11.22,0,0,0-5.58-1.78,15.39,15.39,0,0,0-14.94,7.16l-1.51,3.59a15.08,15.08,0,0,0,0,8l1.51,3.58a15.1,15.1,0,0,0,5.38,5.39Z" transform="translate(0 0.01)"/><path class="cls-1" d="M114.2,553.14l38.47,46.5,10.8,13.06c2.31,2.8,7.12,4.4,10.61,4.4a15.26,15.26,0,0,0,10.6-4.4c2.63-2.85,4.58-6.61,4.4-10.6l-.54-4a15,15,0,0,0-3.86-6.62L146.22,545l-10.75-13.05c-2.32-2.8-7.13-4.4-10.61-4.4a15.29,15.29,0,0,0-10.61,4.4c-2.62,2.85-4.57,6.61-4.39,10.6l.54,4a15.09,15.09,0,0,0,3.85,6.62Z" transform="translate(0 0.01)"/><path class="cls-1" d="M333.11,739.26a104.2,104.2,0,0,0,19.11,17.58,11.09,11.09,0,0,0,5.58,1.78,15.43,15.43,0,0,0,14.95-7.16c1.84-3.48,2.76-7.7,1.51-11.56l-1.51-3.58a15.1,15.1,0,0,0-5.39-5.38c-.61-.45-1.21-.91-1.81-1.37l3,2.34A89.46,89.46,0,0,1,354.3,718a15.44,15.44,0,0,0-21.22,0c-2.62,2.86-4.57,6.61-4.39,10.61l.54,4a15.09,15.09,0,0,0,3.85,6.62Z" transform="translate(0 0.01)"/><path class="cls-1" d="M711.71,1.92a44.7,44.7,0,0,0,14,11.34c1.28.67,2.42-1.27,1.13-1.94A43.29,43.29,0,0,1,713.3.32a1.12,1.12,0,0,0-1.59,1.59Z" transform="translate(0 0.01)"/><path class="cls-1" d="M700.47,44.45l25,20c1.12.9,2.73-.69,1.6-1.59l-25-20c-1.13-.89-2.73.69-1.6,1.6Z" transform="translate(0 0.01)"/><path class="cls-1" d="M723.22,33.27l10,6.2c1.23.76,2.36-1.18,1.13-1.94l-10-6.2C723.12,30.56,722,32.51,723.22,33.27Z" transform="translate(0 0.01)"/></svg>