<svg xmlns="http://www.w3.org/2000/svg" xmlns:xlink="http://www.w3.org/1999/xlink" viewBox="0 0 1243.27 1047.69"><defs><clipPath id="clip-path" transform="translate(-42.74 1.49)"><rect x="516.17" y="514.68" width="252.2" height="253" rx="7.23" style="fill:none"/></clipPath></defs><g id="Ebene_22" data-name="Ebene 22"><g style="clip-path:url(#clip-path)"><rect x="138.54" y="490.43" width="316.43" height="399.15" transform="translate(-483.31 548.25) rotate(-55.74)" style="fill:none"/><polyline points="185.62 656.96 221.25 650.43 225.4 649.67" style="fill:none;stroke:#333030;stroke-miterlimit:10;stroke-width:5px"/><line x1="112.03" y1="670.45" x2="182.22" y2="657.58" style="fill:none;stroke:#333030;stroke-miterlimit:10;stroke-width:5px"/><path d="M228.27,655.48a17.47,17.47,0,0,1-3.31.62Z" transform="translate(-42.74 1.49)" style="fill:none;stroke:#333030;stroke-miterlimit:10;stroke-width:4.11857944085762px"/><path d="M438,596.91c60.94,41.51,74.16,128.26,29.54,193.76S337.33,875.61,276.4,834.1c-44.65-30.41-60.68-88.61-53.72-134.75C227.58,666.87,260.19,654,264,649l0,0c2-2.91-.36-31.3,24.26-46.08C321.76,582.75,388.1,562.93,438,596.91Z" transform="translate(-42.74 1.49)" style="fill:none;stroke:#333030;stroke-miterlimit:10;stroke-width:3.52837865828711px"/><path d="M225,656.1c-14.52,1.36-36.9-12.07-55.31-34.55-22.64-27.62-30.72-58.42-18.05-68.81s41.29,3.6,63.92,31.22,30.72,58.43,18,68.81a14.51,14.51,0,0,1-5.22,2.7h-.08Z" transform="translate(-42.74 1.49)" style="fill:none;stroke:#333030;stroke-miterlimit:10;stroke-width:3.52837865828711px"/><path d="M140.19,772.39c-12.87-5.6-13.41-32.87-1.2-60.93s32.51-46.26,45.38-40.67,13.41,32.88,1.2,60.94S153.05,778,140.19,772.39Z" transform="translate(-42.74 1.49)" style="fill:none;stroke:#333030;stroke-miterlimit:10;stroke-width:3.52837865828711px"/><rect x="625.69" y="508.28" width="399.15" height="316.43" style="fill:none"/><polyline points="749.29 676.46 775.07 651 778.07 648.04" style="fill:none;stroke:#333030;stroke-miterlimit:10;stroke-width:5px"/><line x1="696.07" y1="729.04" x2="746.84" y2="678.89" style="fill:none;stroke:#333030;stroke-miterlimit:10;stroke-width:5px"/><path d="M792,675a17.29,17.29,0,0,1-2.39,2.37Z" transform="translate(-42.74 1.49)" style="fill:none;stroke:#333030;stroke-miterlimit:10;stroke-width:4.11857944085762px"/><path d="M932.31,508.55c73.73,0,133.5,64.25,133.5,143.5s-59.77,143.5-133.5,143.5c-54,0-100-39.07-120.26-81.12-14.24-29.6,5.47-58.59,5.76-64.88v0c0-3.54-17.92-25.66-5.89-51.74C828.29,562.28,872,508.55,932.31,508.55Z" transform="translate(-42.74 1.49)" style="fill:none;stroke:#333030;stroke-miterlimit:10;stroke-width:3.52837865828711px"/><path d="M789.58,677.4c-11.23,9.3-37.29,10.8-65.16,2.59-34.26-10.08-58.28-31-53.66-46.7S706.91,613,741.17,623.1s58.28,31,53.65,46.7A14.39,14.39,0,0,1,792,675L792,675Z" transform="translate(-42.74 1.49)" style="fill:none;stroke:#333030;stroke-miterlimit:10;stroke-width:3.52837865828711px"/><path d="M785,821.24c-13.79,2.62-29.59-19.62-35.3-49.68s.83-56.54,14.61-59.16,29.59,19.62,35.3,49.68S798.78,818.63,785,821.24Z" transform="translate(-42.74 1.49)" style="fill:none;stroke:#333030;stroke-miterlimit:10;stroke-width:3.52837865828711px"/><rect x="861.57" y="86.57" width="179.46" height="226.37" transform="translate(-63.37 186.51) rotate(-10.99)" style="fill:none"/><polyline points="894.8 160.02 911.76 171.62 913.74 172.97" style="fill:none;stroke:#333030;stroke-miterlimit:10;stroke-width:2.83567160367966px"/><line x1="859.77" y1="136.08" x2="893.18" y2="158.92" style="fill:none;stroke:#333030;stroke-miterlimit:10;stroke-width:2.83567160367966px"/><path d="M937.5,158.51a10.06,10.06,0,0,1-1.58-1.08Z" transform="translate(-42.74 1.49)" style="fill:none;stroke:#333030;stroke-miterlimit:10;stroke-width:2.33578775358776px"/><path d="M1045.36,218.64c8,41.05-21.34,81.27-65.46,89.84s-86.36-17.76-94.33-58.81c-5.84-30.07,10.94-59.92,32.16-75.72,14.94-11.13,33.21-3.29,36.75-3.81h0c2-.36,12.35-12.75,28.17-8.87C1004.2,166.54,1038.83,185,1045.36,218.64Z" transform="translate(-42.74 1.49)" style="fill:none;stroke:#333030;stroke-miterlimit:10;stroke-width:2.00106463366682px"/><path d="M935.92,157.43c-6.39-5.24-10-19.59-8.49-36,1.91-20.17,11-35.8,20.2-34.93s15.2,17.94,13.29,38.1-11,35.8-20.2,34.92a8,8,0,0,1-3.18-1,.05.05,0,0,1,0,0Z" transform="translate(-42.74 1.49)" style="fill:none;stroke:#333030;stroke-miterlimit:10;stroke-width:2.00106463366682px"/><path d="M855.34,170.44c-3-7.4,7.73-18.6,23.85-25s31.56-5.65,34.51,1.74-7.72,18.59-23.84,25S858.29,177.83,855.34,170.44Z" transform="translate(-42.74 1.49)" style="fill:none;stroke:#333030;stroke-miterlimit:10;stroke-width:2.00106463366682px"/><rect x="986.9" y="761.99" width="279.53" height="221.6" transform="translate(-182.02 1528.88) rotate(-65.11)" style="fill:none"/><polyline points="1099.99 823.08 1108.57 846.96 1109.56 849.74" style="fill:none;stroke:#333030;stroke-miterlimit:10;stroke-width:3.50152730941772px"/><line x1="1082.28" y1="773.77" x2="1099.17" y2="820.8" style="fill:none;stroke:#333030;stroke-miterlimit:10;stroke-width:3.50152730941772px"/><path d="M1142.71,821.53a11.56,11.56,0,0,1-.8-2.21Z" transform="translate(-42.74 1.49)" style="fill:none;stroke:#333030;stroke-miterlimit:10;stroke-width:2.88426367763387px"/><path d="M1207.09,959.76c-21.73,46.83-80.17,65.86-130.51,42.5S1003,922,1024.78,875.15c15.92-34.31,54.31-52,87-52.48,23-.32,35.61,20.75,39.52,22.79h0c2.24,1.06,21.58-3.82,34.6,11.51C1203.62,877.84,1224.89,921.41,1207.09,959.76Z" transform="translate(-42.74 1.49)" style="fill:none;stroke:#333030;stroke-miterlimit:10;stroke-width:2.4709428459918px"/><path d="M1141.91,819.32c-2.6-9.88,4.13-26.88,17.56-42.16,16.5-18.79,36.87-27.89,45.48-20.32s2.23,28.94-14.28,47.73-36.87,27.89-45.48,20.31a9.94,9.94,0,0,1-2.46-3.29.08.08,0,0,1,0-.06Z" transform="translate(-42.74 1.49)" style="fill:none;stroke:#333030;stroke-miterlimit:10;stroke-width:2.4709428459918px"/><path d="M1051.88,774c2.4-9.53,21.19-13,42-7.77s35.67,17.19,33.27,26.72-21.18,13-42,7.77S1049.48,783.53,1051.88,774Z" transform="translate(-42.74 1.49)" style="fill:none;stroke:#333030;stroke-miterlimit:10;stroke-width:2.4709428459918px"/><rect x="272.18" y="61.79" width="417.92" height="527.17" transform="translate(-134.77 232.88) rotate(-24.76)" style="fill:none"/><polyline points="384.43 241.27 429.22 258.1 434.43 260.06" style="fill:none;stroke:#333030;stroke-miterlimit:10;stroke-width:6.60373747348785px"/><line x1="291.93" y1="206.52" x2="380.16" y2="239.67" style="fill:none;stroke:#333030;stroke-miterlimit:10;stroke-width:6.60373747348785px"/><path d="M427.06,239.74a23.56,23.56,0,0,1-4.17-1.56Z" transform="translate(-42.74 1.49)" style="fill:none;stroke:#333030;stroke-miterlimit:10;stroke-width:5.43960347822563px"/><path d="M704.35,316c40.78,88.43-3.22,195.65-98.27,239.48s-205.17,7.68-246-80.75c-29.88-64.78-8.47-141.59,30.78-189.1,27.62-33.45,73.3-25.84,81-29l0,0c4.26-1.92,20.86-35.68,58.79-35.68C582.37,220.94,671,243.58,704.35,316Z" transform="translate(-42.74 1.49)" style="fill:none;stroke:#333030;stroke-miterlimit:10;stroke-width:4.66009727327708px"/><path d="M422.89,238.18c-17.36-8.32-33.57-38.75-39.14-76.72-6.86-46.66,4.93-87,26.33-90.18s44.32,32.14,51.16,78.81-4.93,87-26.33,90.17a19,19,0,0,1-7.75-.48.26.26,0,0,1-.1,0Z" transform="translate(-42.74 1.49)" style="fill:none;stroke:#333030;stroke-miterlimit:10;stroke-width:4.66009727327708px"/><path d="M247.84,312.25c-10.77-15.09,7.17-46.34,40.06-69.82s68.28-30.28,79-15.2-7.17,46.34-40.06,69.82S258.6,327.33,247.84,312.25Z" transform="translate(-42.74 1.49)" style="fill:none;stroke:#333030;stroke-miterlimit:10;stroke-width:4.66009727327708px"/></g></g></svg>