    <svg
      id="Ebene_1"
      data-name="Ebene 1"
      xmlns="http://www.w3.org/2000/svg"
      viewBox="0 0 816.26 802.36"
    >
      <style type="text/css">
        /* #333030
        #3a3939 */

        /*.item:nth-child(odd) {
          fill: #eeeeee;
        } */

        svg {
          animation: whirl 165s infinite;
        }
  #i {
    fill: red;
  }

        .item:nth-child(even) {
          fill: #777;
          animation: lightup 6s alternate infinite;
        }
        .item:nth-child(odd) {
          fill: #777;
          animation: lightup 4s alternate-reverse infinite;
        }

        @keyframes lightup {
          from {
            fill: #777;
          }
          to {
            fill: #eeeeee;
          }
        }

        @keyframes whirl {
  0% {
    scale: 1;
    rotate: 0deg;
  }
  /* 50% {
    scale: 1.2;
    rotate: -270deg;
  } */
  100% {
    scale: 0.7;
    rotate: 270deg;
  }
}

      </style>
      <path
        class="item"
        d="M566.9,439.84a276.2,276.2,0,0,0,30.21,32.28c1.43,1.3,3.55-.82,2.12-2.12A275.26,275.26,0,0,1,569,437.72c-1.21-1.51-3.32.62-2.13,2.12Z"
        transform="translate(-435.53 -72.6)"
      />
      <path
        class="item"
        d="M633,488.72,671.24,528c1.35,1.38,3.47-.74,2.12-2.12L635.15,486.6c-1.35-1.39-3.47.73-2.12,2.12Z"
        transform="translate(-435.53 -72.6)"
      />
      <path 
        class="item"
        d="M721.84,498.64l31.39,36.13c1.27,1.46,3.38-.67,2.12-2.12L724,496.52c-1.27-1.46-3.39.67-2.13,2.12Z"
        transform="translate(-435.53 -72.6)"
      />
      <path
        class="item"
        d="M700.62,631.12,726,660.83c1.25,1.47,3.37-.66,2.12-2.12L702.75,629c-1.26-1.48-3.37.65-2.13,2.12Z"
        transform="translate(-435.53 -72.6)"
      />
      <path
        class="item"
        d="M439.93,759.32l35.93,41.88,10.24,11.94c2.39,2.79,7.06,4.4,10.61,4.4a15.25,15.25,0,0,0,10.6-4.4c2.63-2.85,4.58-6.61,4.4-10.6l-.54-4a15,15,0,0,0-3.86-6.62l-35.92-41.88-10.24-11.94c-2.39-2.79-7.06-4.39-10.61-4.39a15.28,15.28,0,0,0-10.61,4.39c-2.62,2.86-4.57,6.61-4.39,10.61l.54,4a14.94,14.94,0,0,0,3.85,6.62Z"
        transform="translate(-435.53 -72.6)"
      />
      <path
        class="item"
        d="M613.53,804.47l36.17,33.84a15.69,15.69,0,0,0,10.61,4.39,15.28,15.28,0,0,0,10.61-4.39c2.62-2.86,4.57-6.61,4.39-10.61a15.22,15.22,0,0,0-4.39-10.6l-36.17-33.84a15.69,15.69,0,0,0-10.61-4.39,15.28,15.28,0,0,0-10.61,4.39c-2.62,2.86-4.57,6.61-4.39,10.61a15.22,15.22,0,0,0,4.39,10.6Z"
        transform="translate(-435.53 -72.6)"
      />
      <path
        class="item"
        d="M668.06,791.45l5,2.54a11.21,11.21,0,0,0,5.58,1.78,11.48,11.48,0,0,0,6-.27,16.8,16.8,0,0,0,9-6.9l1.51-3.58a15,15,0,0,0,0-8l-1.51-3.59a15.07,15.07,0,0,0-5.38-5.38l-5-2.54a11.21,11.21,0,0,0-5.58-1.78,15.39,15.39,0,0,0-14.94,7.16l-1.51,3.59a15,15,0,0,0,0,8l1.51,3.58a15.1,15.1,0,0,0,5.38,5.39Z"
        transform="translate(-435.53 -72.6)"
      />
      <path
        class="item"
        d="M549.73,625.74l38.47,46.5L599,685.3c2.31,2.8,7.12,4.4,10.61,4.4a15.25,15.25,0,0,0,10.6-4.4c2.63-2.85,4.58-6.61,4.4-10.6l-.54-4a15,15,0,0,0-3.86-6.62l-38.46-46.5L571,604.53c-2.32-2.8-7.13-4.4-10.61-4.4a15.29,15.29,0,0,0-10.61,4.4c-2.62,2.85-4.57,6.61-4.39,10.6l.54,4a15,15,0,0,0,3.85,6.62Z"
        transform="translate(-435.53 -72.6)"
      />
      <path
        class="item"
        d="M768.64,811.86a104.55,104.55,0,0,0,19.11,17.58,11.11,11.11,0,0,0,5.58,1.78,15.43,15.43,0,0,0,14.95-7.16c1.84-3.48,2.76-7.7,1.51-11.56l-1.51-3.58a15.1,15.1,0,0,0-5.39-5.38c-.61-.45-1.21-.91-1.81-1.37l3,2.34a89.46,89.46,0,0,1-14.25-13.87,15.44,15.44,0,0,0-21.22,0c-2.62,2.86-4.57,6.61-4.39,10.61l.54,4a15.09,15.09,0,0,0,3.85,6.62Z"
        transform="translate(-435.53 -72.6)"
      />
      <path
        class="item"
        d="M1227.4,766.8,1239,780.28a7.56,7.56,0,0,0,5.3,2.19,7.65,7.65,0,0,0,5.31-2.19,7.56,7.56,0,0,0,2.19-5.31l-.27-2a7.53,7.53,0,0,0-1.92-3.31L1238,756.2a7.57,7.57,0,0,0-5.3-2.2,7.66,7.66,0,0,0-5.31,2.2,7.54,7.54,0,0,0-2.19,5.3l.27,2a7.42,7.42,0,0,0,1.92,3.31Z"
        transform="translate(-435.53 -72.6)"
      />
      <path
        class="item"
        d="M1133.41,737.91a131,131,0,0,0,19.46,24.72c2.78,2.77,7.86,3,10.6,0a7.63,7.63,0,0,0,0-10.6A123.11,123.11,0,0,1,1153,740.16l1.17,1.52a127.17,127.17,0,0,1-7.79-11.34c-2-3.36-6.81-4.92-10.26-2.7a7.64,7.64,0,0,0-2.69,10.27Z"
        transform="translate(-435.53 -72.6)"
      />
      <path
        class="item"
        d="M1180.2,854.05,1199,872.8c2.77,2.78,7.86,3,10.6,0a7.62,7.62,0,0,0,0-10.6l-18.75-18.75c-2.77-2.78-7.86-3-10.6,0a7.62,7.62,0,0,0,0,10.6Z"
        transform="translate(-435.53 -72.6)"
      />
      <path
        class="item"
        d="M1147.24,74.52a44.59,44.59,0,0,0,14,11.34c1.28.67,2.42-1.27,1.13-1.94a43.26,43.26,0,0,1-13.54-11,1.12,1.12,0,1,0-1.59,1.59Z"
        transform="translate(-435.53 -72.6)"
      />
      <path
        class="item"
        d="M1136,117.05l25,20c1.12.9,2.73-.69,1.6-1.59l-25-20c-1.13-.89-2.73.69-1.6,1.6Z"
        transform="translate(-435.53 -72.6)"
      />
      <path
        class="item"
        d="M1158.75,105.87l10,6.2c1.23.76,2.36-1.18,1.13-1.94l-10-6.2c-1.23-.77-2.36,1.18-1.13,1.94Z"
        transform="translate(-435.53 -72.6)"
      />
    </svg>