<svg id="Ebene_4" data-name="Ebene 4" xmlns="http://www.w3.org/2000/svg" viewBox="0 0 249.3 249.32"><defs><style>.cls-1{fill:#8886c8;}.cls-2{fill:#3936a3;}.cls-3,.cls-5{fill:none;stroke:#333030;stroke-miterlimit:10;}.cls-3{stroke-width:2.71px;}.cls-4{fill:#d7d7ed;}.cls-5{stroke-width:3.07px;}</style></defs><path class="cls-1" d="M884.44,462.1c-.37-1.76-.83-3.58-1.39-5.41-4.28-14-12.64-23.91-18.65-22.07s-7.41,14.7-3.12,28.73c.12.41.25.82.39,1.22a33,33,0,0,1-5.31-1.64,34.8,34.8,0,0,1-9-5.25,35.23,35.23,0,0,1-10.57-14.13,16.13,16.13,0,0,1-2.61.21,16.81,16.81,0,0,1-16.8-16.27c0-.18,0-.36,0-.54a16.83,16.83,0,0,1,22.43-15.84,35.15,35.15,0,0,1,20.34-14.9,34.61,34.61,0,0,1,8.38-1.23c-3.64,10.17-3.41,19,1.1,21.38,5.05,2.63,13.74-3.84,20.37-14.76a35.24,35.24,0,0,1-5.59,60.5Z" transform="translate(-785.7 -237.67)"/><path class="cls-2" d="M883.05,456.69c.56,1.83,1,3.65,1.39,5.41a35.28,35.28,0,0,1-22.77,2.47c-.14-.4-.27-.81-.39-1.22-4.29-14-2.89-26.89,3.12-28.73S878.77,442.66,883.05,456.69Z" transform="translate(-785.7 -237.67)"/><path class="cls-2" d="M869.45,395A35,35,0,0,1,890,401.6c-6.63,10.92-15.32,17.39-20.37,14.76-4.51-2.34-4.74-11.21-1.1-21.38Z" transform="translate(-785.7 -237.67)"/><path class="cls-2" d="M894.18,369.24c5.58,2.9,4.61,15.8-2.16,28.82-.64,1.22-1.3,2.4-2,3.54A35,35,0,0,0,869.45,395h-.89a60.17,60.17,0,0,1,3.26-7.44c5.86-11.24,14.12-18.89,19.86-18.89A5.3,5.3,0,0,1,894.18,369.24Z" transform="translate(-785.7 -237.67)"/><path class="cls-2" d="M884.44,462.1c2.45,11.79.71,21.73-4.51,23.32a5.09,5.09,0,0,1-1.5.22c-5.65,0-12.74-8.8-16.76-21.07a35.28,35.28,0,0,0,22.77-2.47Z" transform="translate(-785.7 -237.67)"/><path class="cls-3" d="M861.67,464.57a35.28,35.28,0,0,0,22.77-2.47c2.45,11.79.71,21.73-4.51,23.32a5.09,5.09,0,0,1-1.5.22C872.78,485.64,865.69,476.84,861.67,464.57Z" transform="translate(-785.7 -237.67)"/><path class="cls-3" d="M884.44,462.1c-.37-1.76-.83-3.58-1.39-5.41-4.28-14-12.64-23.91-18.65-22.07s-7.41,14.7-3.12,28.73c.12.41.25.82.39,1.22a33,33,0,0,1-5.31-1.64,34.8,34.8,0,0,1-9-5.25,35.23,35.23,0,0,1-10.57-14.13,16.13,16.13,0,0,1-2.61.21,16.81,16.81,0,0,1-16.8-16.27c0-.18,0-.36,0-.54a16.83,16.83,0,0,1,22.43-15.84,35.15,35.15,0,0,1,20.34-14.9,34.61,34.61,0,0,1,8.38-1.23c-3.64,10.17-3.41,19,1.1,21.38,5.05,2.63,13.74-3.84,20.37-14.76a35.24,35.24,0,0,1-5.59,60.5Z" transform="translate(-785.7 -237.67)"/><path class="cls-3" d="M890,401.6A35,35,0,0,0,869.45,395h-.89a60.17,60.17,0,0,1,3.26-7.44c5.86-11.24,14.12-18.89,19.86-18.89a5.3,5.3,0,0,1,2.5.59c5.58,2.9,4.61,15.8-2.16,28.82C891.38,399.28,890.72,400.46,890,401.6Z" transform="translate(-785.7 -237.67)"/><polyline class="cls-3" points="43.64 144.82 65.17 162.59 65.32 162.72"/><polyline class="cls-3" points="62.07 136.69 74.48 158.53 75.62 160.54"/><polyline class="cls-3" points="62.07 219.63 61.7 220 49.06 232.65"/><polyline class="cls-3" points="31.71 189.81 1.62 189.28 0.81 189.28"/><polyline class="cls-3" points="70.74 225.06 70.66 225.25 62.07 246.19"/><polyline class="cls-3" points="1.35 181.69 1.62 189.28 1.89 196.87"/><path class="cls-4" d="M1016.85,276.53a39.91,39.91,0,0,1-6.33,68.53c-.41-2-.94-4.05-1.57-6.12-4.85-15.9-14.31-27.09-21.12-25s-8.4,16.65-3.54,32.55c.14.46.29.93.44,1.38a38.08,38.08,0,0,1-6-1.86,39.46,39.46,0,0,1-10.14-5.95h0a39.78,39.78,0,0,1-12-16,19.41,19.41,0,0,1-3,.23,19,19,0,0,1-19-18.42c0-.2,0-.41,0-.61A19,19,0,0,1,960,287.3,39.82,39.82,0,0,1,972.5,275a39.27,39.27,0,0,1,10.54-4.6,39.7,39.7,0,0,1,9.5-1.39c-4.12,11.52-3.86,21.56,1.24,24.22C999.5,296.23,1009.34,288.89,1016.85,276.53Z" transform="translate(-785.7 -237.67)"/><path class="cls-2" d="M993.55,269a39.66,39.66,0,0,1,23.3,7.51c-7.51,12.36-17.35,19.7-23.07,16.72-5.1-2.66-5.36-12.7-1.24-24.22Z" transform="translate(-785.7 -237.67)"/><path class="cls-2" d="M1021.56,239.87c6.32,3.29,5.22,17.9-2.45,32.65-.72,1.38-1.48,2.72-2.26,4a39.66,39.66,0,0,0-23.3-7.51h-1a68.42,68.42,0,0,1,3.69-8.43c6.63-12.73,16-21.39,22.5-21.39A6,6,0,0,1,1021.56,239.87Z" transform="translate(-785.7 -237.67)"/><path class="cls-2" d="M1009,338.94c.63,2.07,1.16,4.12,1.57,6.12a39.85,39.85,0,0,1-25.79,2.8c-.15-.45-.3-.92-.44-1.38-4.86-15.9-3.27-30.47,3.54-32.55S1004.1,323,1009,338.94Z" transform="translate(-785.7 -237.67)"/><path class="cls-2" d="M1010.52,345.06c2.78,13.36.81,24.61-5.11,26.42a5.67,5.67,0,0,1-1.69.25c-6.39,0-14.44-10-19-23.87a39.85,39.85,0,0,0,25.79-2.8Z" transform="translate(-785.7 -237.67)"/><path class="cls-5" d="M984.73,347.86a39.85,39.85,0,0,0,25.79-2.8c2.78,13.36.81,24.61-5.11,26.42a5.67,5.67,0,0,1-1.69.25C997.33,371.73,989.28,361.75,984.73,347.86Z" transform="translate(-785.7 -237.67)"/><path class="cls-5" d="M968.57,340.05a39.78,39.78,0,0,1-12-16,19.41,19.41,0,0,1-3,.23,19,19,0,0,1-19-18.42c0-.2,0-.41,0-.61A19,19,0,0,1,960,287.3,39.82,39.82,0,0,1,972.5,275a39.27,39.27,0,0,1,10.54-4.6,39.7,39.7,0,0,1,9.5-1.39c-4.12,11.52-3.86,21.56,1.24,24.22,5.72,3,15.56-4.36,23.07-16.72a39.91,39.91,0,0,1-6.33,68.53c-.41-2-.94-4.05-1.57-6.12-4.85-15.9-14.31-27.09-21.12-25s-8.4,16.65-3.54,32.55c.14.46.29.93.44,1.38a38.08,38.08,0,0,1-6-1.86,39.46,39.46,0,0,1-10.14-5.95" transform="translate(-785.7 -237.67)"/><path class="cls-5" d="M1016.85,276.53a39.66,39.66,0,0,0-23.3-7.51h-1a68.42,68.42,0,0,1,3.69-8.43c6.63-12.73,16-21.39,22.5-21.39a6,6,0,0,1,2.83.66c6.32,3.29,5.22,17.9-2.45,32.65C1018.39,273.9,1017.63,275.24,1016.85,276.53Z" transform="translate(-785.7 -237.67)"/><polyline class="cls-5" points="162.41 17.21 186.8 37.34 186.97 37.48"/><polyline class="cls-5" points="183.29 8.01 197.34 32.74 198.64 35.02"/><polyline class="cls-5" points="183.29 101.97 182.88 102.38 182.87 102.38 168.55 116.69"/><polyline class="cls-5" points="148.9 68.19 114.82 67.59 113.89 67.58"/><polyline class="cls-5" points="193.11 108.11 193.02 108.33 183.29 132.06"/><polyline class="cls-5" points="114.51 58.98 114.82 67.59 115.12 76.17"/></svg>