<svg id="Ebene_1" data-name="Ebene 1" xmlns="http://www.w3.org/2000/svg" viewBox="0 0 65.07 56.97"><defs><style>.cls-1{fill:#fcfa8f;}.cls-2{fill:#78917c;}</style></defs><path class="cls-1" d="M82.54,32l-1.08-2.1V30c-2.45-2.39-6.61-3.68-12.26-4.12-.7-.05-1.11-1-1.75-1.4-1.67-1-3.38-2.78-5.09-2.81-13.31-.24-26.62-.1-39.92-.15-3.62,0-5,1.59-5,5.17.1,13.14,0,26.28.07,39.42.05,7.44,4.68,12.11,12.19,12.26q12.72.24,25.45,0c7.73-.14,12.18-4.86,12.29-12.69,0-2.45,0-4.9,0-7.35a3.17,3.17,0,0,1,2.92-3.16l.44,0c8.26-.44,11.6-3.94,11.64-12.22,0-3.65,0-7.3,0-11ZM76.35,46.7a2.76,2.76,0,0,1-.38.77,3.11,3.11,0,0,1-5,.19,1.53,1.53,0,0,1-.35-.8,65.47,65.47,0,0,1,0-11.88c.1-1.07,1.83-2.46,3-2.75.66-.16,2.38,1.54,2.6,2.62.43,2.06.13,4.27.13,6.42h0C76.47,43.09,76.83,45,76.35,46.7Z" transform="translate(-17.46 -21.51)"/><path class="cls-2" d="M82.53,32l-1.08-2.11Z" transform="translate(-17.46 -21.51)"/></svg>