<svg id="Ebene_1" data-name="Ebene 1" xmlns="http://www.w3.org/2000/svg" xmlns:xlink="http://www.w3.org/1999/xlink" viewBox="0 0 176 96.8"><defs><style>.cls-1{fill:#49604c;}.cls-2{fill:url(#Unbenannter_Verlauf_148);}.cls-3{opacity:0.8;}.cls-4{fill:url(#apple-red);}.cls-5{fill:#c7d8ca;}.cls-6{fill:url(#Unbenannter_Verlauf_148-2);}.cls-7{fill:url(#Unbenannter_Verlauf_148-3);}.cls-8{fill:url(#Unbenannter_Verlauf_148-4);}.cls-9{fill:url(#Unbenannter_Verlauf_148-5);}.cls-10{fill:url(#Unbenannter_Verlauf_148-6);}.cls-11{fill:url(#Unbenannter_Verlauf_148-7);}.cls-12{fill:url(#Unbenannter_Verlauf_148-8);}.cls-13{fill:url(#Unbenannter_Verlauf_148-9);}.cls-14{fill:url(#Unbenannter_Verlauf_148-10);}.cls-15{fill:url(#Unbenannter_Verlauf_148-11);}.cls-16{fill:gray;}</style><linearGradient id="Unbenannter_Verlauf_148" x1="16289.45" y1="16522.45" x2="16307.86" y2="16522.45" gradientTransform="translate(16309.5 16538.82) rotate(180)" gradientUnits="userSpaceOnUse"><stop offset="0" stop-color="#ea3f63" stop-opacity="0.05"/><stop offset="0.6" stop-opacity="0.79"/></linearGradient><linearGradient id="apple-red" y1="38.14" x2="110.87" y2="38.14" gradientUnits="userSpaceOnUse"><stop offset="0" stop-color="#ea3f63" stop-opacity="0.05"/><stop offset="0.6" stop-color="#ea3f63" stop-opacity="0.79"/></linearGradient><linearGradient id="Unbenannter_Verlauf_148-2" x1="70.56" y1="300.78" x2="74.7" y2="300.78" gradientTransform="translate(76.41 380.39) rotate(180)" xlink:href="#Unbenannter_Verlauf_148"/><linearGradient id="Unbenannter_Verlauf_148-3" x1="-1.61" y1="325.35" x2="1.23" y2="325.35" gradientTransform="translate(76.41 380.39) rotate(180)" xlink:href="#Unbenannter_Verlauf_148"/><linearGradient id="Unbenannter_Verlauf_148-4" x1="-43.61" y1="322.35" x2="-40.77" y2="322.35" gradientTransform="translate(76.41 380.39) rotate(180)" xlink:href="#Unbenannter_Verlauf_148"/><linearGradient id="Unbenannter_Verlauf_148-5" x1="-48.14" y1="301.3" x2="-46.34" y2="301.3" gradientTransform="translate(76.41 380.39) rotate(180)" xlink:href="#Unbenannter_Verlauf_148"/><linearGradient id="Unbenannter_Verlauf_148-6" x1="-71.14" y1="302.3" x2="-69.34" y2="302.3" gradientTransform="translate(76.41 380.39) rotate(180)" xlink:href="#Unbenannter_Verlauf_148"/><linearGradient id="Unbenannter_Verlauf_148-7" x1="-78.8" y1="318.4" x2="-77.94" y2="318.4" gradientTransform="translate(76.41 380.39) rotate(180)" xlink:href="#Unbenannter_Verlauf_148"/><linearGradient id="Unbenannter_Verlauf_148-8" x1="-91.8" y1="308.4" x2="-90.94" y2="308.4" gradientTransform="translate(76.41 380.39) rotate(180)" xlink:href="#Unbenannter_Verlauf_148"/><linearGradient id="Unbenannter_Verlauf_148-9" x1="-12.61" y1="296.35" x2="-9.77" y2="296.35" gradientTransform="translate(76.41 380.39) rotate(180)" xlink:href="#Unbenannter_Verlauf_148"/><linearGradient id="Unbenannter_Verlauf_148-10" x1="-7.61" y1="352.35" x2="-4.77" y2="352.35" gradientTransform="translate(76.41 380.39) rotate(180)" xlink:href="#Unbenannter_Verlauf_148"/><linearGradient id="Unbenannter_Verlauf_148-11" x1="8217.83" y1="8481.7" x2="8225.72" y2="8481.7" gradientTransform="translate(-6491.5 6382.41) rotate(-90) scale(0.77)" xlink:href="#Unbenannter_Verlauf_148"/><symbol id="leg" data-name="leg" viewBox="0 0 55.56 50.48"><path class="cls-3" d="M16,7,2.35,28.52C-2.66,36.44.8,46.1,8.43,49a5.69,5.69,0,0,0,7.39-3.8l8.07-27.49,11.24.45L39,44.73A6.69,6.69,0,0,0,49,49.51a14.29,14.29,0,0,0,4.8-18.91L42,8.05A15,15,0,0,0,16,7Z"/></symbol><symbol id="wing" data-name="wing" viewBox="0 0 110.88 76.28"><path class="cls-4" d="M109.75,42.89c-2.86,4.39-12.24,8.36-20.9,12.68A164.47,164.47,0,0,0,63.93,70C56.32,74.93,46,79.1,32.42,73.84,19.53,69.14,3.31,55,.66,36-2.89,17.07,8.4,2.47,21.44.51,34.9-2.36,50.12,7.43,63.93,16.3,91.78,35.69,116.5,33.75,109.75,42.89Z"/></symbol><symbol id="eye" data-name="eye" viewBox="0 0 31.09 31.09"><circle class="cls-1" cx="15.55" cy="15.55" r="15.55"/><ellipse class="cls-2" cx="10.84" cy="16.36" rx="9.2" ry="9.82"/></symbol></defs><g id="fly-flatter"><use width="55.56" height="50.48" transform="matrix(-0.18, -0.13, 0.13, -0.18, 34.72, 92.68)" xlink:href="#leg"/><use width="55.56" height="50.48" transform="matrix(0.22, -0.02, 0.02, 0.22, 26.66, 58.58)" xlink:href="#leg"/><path class="cls-5" d="M60.3,95.11c0,5-6.25,9-14,9-6.48,0-11.92-2.83-13.5-6.68H31.58a5.88,5.88,0,1,1-.33-3.85h1.33c1.14-4.22,6.87-7.43,13.76-7.43C54.05,86.13,60.3,90.15,60.3,95.11Z" transform="translate(-20 -20.2)"/><use width="110.87" height="76.28" transform="matrix(-0.17, 0.15, -0.15, -0.17, 46.09, 60.24)" xlink:href="#wing"/><use width="110.87" height="76.28" transform="matrix(-0.2, -0.09, 0.12, -0.24, 38.52, 98.8)" xlink:href="#wing"/><use width="110.87" height="76.28" transform="matrix(-0.06, 0.05, -0.05, -0.06, 36.13, 68.62)" xlink:href="#wing"/><use width="110.87" height="76.28" transform="matrix(-0.07, -0.03, 0.04, -0.09, 33.38, 82.66)" xlink:href="#wing"/><ellipse class="cls-1" cx="4.83" cy="79.1" rx="3.49" ry="3.48"/><use width="31.09" height="31.09" transform="translate(1.34 67.55) scale(0.22 0.22)" xlink:href="#eye"/><ellipse class="cls-6" cx="3.78" cy="79.61" rx="2.07" ry="2.2"/><use width="55.56" height="50.48" transform="matrix(-0.12, 0.11, -0.11, -0.12, 23.63, 85.45)" xlink:href="#leg"/><use width="55.56" height="50.48" transform="translate(10.65 59.89) scale(0.16 0.16)" xlink:href="#leg"/><use width="55.56" height="50.48" transform="matrix(-0.12, -0.09, 0.09, -0.12, 97.9, 64.04)" xlink:href="#leg"/><use width="55.56" height="50.48" transform="matrix(0.15, -0.02, 0.02, 0.15, 92.36, 40.56)" xlink:href="#leg"/><path class="cls-5" d="M121.75,72c0,3.42-4.31,6.19-9.62,6.19-4.46,0-8.2-2-9.29-4.6H102a4,4,0,1,1-.22-2.65h.91c.79-2.91,4.73-5.12,9.47-5.12C117.44,65.82,121.75,68.59,121.75,72Z" transform="translate(-20 -20.2)"/><use width="110.87" height="76.28" transform="matrix(-0.11, 0.1, -0.1, -0.11, 105.73, 41.7)" xlink:href="#wing"/><use width="110.87" height="76.28" transform="matrix(-0.13, -0.06, 0.08, -0.17, 100.52, 68.25)" xlink:href="#wing"/><use width="110.87" height="76.28" transform="matrix(-0.04, 0.04, -0.04, -0.04, 98.87, 47.47)" xlink:href="#wing"/><use width="110.87" height="76.28" transform="matrix(-0.05, -0.02, 0.03, -0.06, 96.98, 57.14)" xlink:href="#wing"/><ellipse class="cls-1" cx="77.33" cy="54.69" rx="2.4" ry="2.4"/><use width="31.09" height="31.09" transform="translate(74.92 46.74) scale(0.15 0.15)" xlink:href="#eye"/><ellipse class="cls-7" cx="76.6" cy="55.04" rx="1.42" ry="1.51"/><use width="55.56" height="50.48" transform="matrix(-0.08, 0.08, -0.08, -0.08, 90.27, 59.06)" xlink:href="#leg"/><use width="55.56" height="50.48" transform="translate(81.33 41.46) scale(0.11 0.11)" xlink:href="#leg"/><use width="55.56" height="50.48" transform="matrix(-0.12, -0.09, 0.09, -0.12, 139.9, 67.04)" xlink:href="#leg"/><use width="55.56" height="50.48" transform="matrix(0.15, -0.02, 0.02, 0.15, 134.36, 43.56)" xlink:href="#leg"/><path class="cls-5" d="M163.75,75c0,3.42-4.31,6.19-9.62,6.19-4.46,0-8.2-2-9.29-4.6H144a4,4,0,1,1-.22-2.65h.91c.79-2.91,4.73-5.12,9.47-5.12C159.44,68.82,163.75,71.59,163.75,75Z" transform="translate(-20 -20.2)"/><use width="110.87" height="76.28" transform="matrix(-0.11, 0.1, -0.1, -0.11, 147.73, 44.7)" xlink:href="#wing"/><use width="110.87" height="76.28" transform="matrix(-0.13, -0.06, 0.08, -0.17, 142.52, 71.25)" xlink:href="#wing"/><use width="110.87" height="76.28" transform="matrix(-0.04, 0.04, -0.04, -0.04, 140.87, 50.47)" xlink:href="#wing"/><use width="110.87" height="76.28" transform="matrix(-0.05, -0.02, 0.03, -0.06, 138.98, 60.14)" xlink:href="#wing"/><ellipse class="cls-1" cx="119.33" cy="57.69" rx="2.4" ry="2.4"/><use width="31.09" height="31.09" transform="translate(116.92 49.74) scale(0.15 0.15)" xlink:href="#eye"/><ellipse class="cls-8" cx="118.6" cy="58.04" rx="1.42" ry="1.51"/><use width="55.56" height="50.48" transform="matrix(-0.08, 0.08, -0.08, -0.08, 132.27, 62.06)" xlink:href="#leg"/><use width="55.56" height="50.48" transform="translate(123.33 44.46) scale(0.11 0.11)" xlink:href="#leg"/><use width="55.56" height="50.48" transform="matrix(-0.08, -0.06, 0.06, -0.08, 137.14, 84.79)" xlink:href="#leg"/><use width="55.56" height="50.48" transform="matrix(0.1, -0.01, 0.01, 0.1, 133.63, 69.92)" xlink:href="#leg"/><path class="cls-5" d="M159.57,97.24c0,2.17-2.72,3.92-6.09,3.92-2.82,0-5.19-1.23-5.88-2.91h-.55a2.56,2.56,0,1,1-.14-1.68h.57c.5-1.84,3-3.24,6-3.24C156.85,93.33,159.57,95.08,159.57,97.24Z" transform="translate(-20 -20.2)"/><use width="110.87" height="76.28" transform="matrix(-0.07, 0.07, -0.07, -0.07, 142.09, 70.65)" xlink:href="#wing"/><use width="110.87" height="76.28" transform="matrix(-0.09, -0.04, 0.05, -0.11, 138.8, 87.46)" xlink:href="#wing"/><use width="110.87" height="76.28" transform="matrix(-0.03, 0.02, -0.02, -0.03, 137.75, 74.3)" xlink:href="#wing"/><use width="110.87" height="76.28" transform="matrix(-0.03, -0.01, 0.02, -0.04, 136.55, 80.42)" xlink:href="#wing"/><circle class="cls-1" cx="124.11" cy="78.87" r="1.52"/><use width="31.09" height="31.09" transform="translate(122.59 73.84) scale(0.1 0.1)" xlink:href="#eye"/><ellipse class="cls-9" cx="123.65" cy="79.09" rx="0.9" ry="0.96"/><use width="55.56" height="50.48" transform="matrix(-0.05, 0.05, -0.05, -0.05, 132.3, 81.64)" xlink:href="#leg"/><use width="55.56" height="50.48" transform="translate(126.64 70.5) scale(0.07 0.07)" xlink:href="#leg"/><use width="55.56" height="50.48" transform="matrix(-0.08, -0.06, 0.06, -0.08, 160.14, 83.79)" xlink:href="#leg"/><use width="55.56" height="50.48" transform="matrix(0.1, -0.01, 0.01, 0.1, 156.63, 68.92)" xlink:href="#leg"/><path class="cls-5" d="M182.57,96.24c0,2.17-2.72,3.92-6.09,3.92-2.82,0-5.19-1.23-5.88-2.91h-.55a2.56,2.56,0,1,1-.14-1.68h.57c.5-1.84,3-3.24,6-3.24C179.85,92.33,182.57,94.08,182.57,96.24Z" transform="translate(-20 -20.2)"/><use width="110.87" height="76.28" transform="matrix(-0.07, 0.07, -0.07, -0.07, 165.09, 69.65)" xlink:href="#wing"/><use width="110.87" height="76.28" transform="matrix(-0.09, -0.04, 0.05, -0.11, 161.8, 86.46)" xlink:href="#wing"/><use width="110.87" height="76.28" transform="matrix(-0.03, 0.02, -0.02, -0.03, 160.75, 73.3)" xlink:href="#wing"/><use width="110.87" height="76.28" transform="matrix(-0.03, -0.01, 0.02, -0.04, 159.55, 79.42)" xlink:href="#wing"/><circle class="cls-1" cx="147.11" cy="77.87" r="1.52"/><use width="31.09" height="31.09" transform="translate(145.59 72.84) scale(0.1 0.1)" xlink:href="#eye"/><ellipse class="cls-10" cx="146.65" cy="78.09" rx="0.9" ry="0.96"/><use width="55.56" height="50.48" transform="matrix(-0.05, 0.05, -0.05, -0.05, 155.3, 80.64)" xlink:href="#leg"/><use width="55.56" height="50.48" transform="translate(149.64 69.5) scale(0.07 0.07)" xlink:href="#leg"/><use width="55.56" height="50.48" transform="matrix(-0.04, -0.03, 0.03, -0.04, 161.17, 64.89)" xlink:href="#leg"/><use width="55.56" height="50.48" transform="matrix(0.05, -0.01, 0, 0.05, 159.51, 57.32)" xlink:href="#leg"/><path class="cls-5" d="M182.32,81.15c0,1.1-1.29,2-2.88,2a2.91,2.91,0,0,1-2.79-1.48h-.26a1.23,1.23,0,0,1-1.18,1,1.3,1.3,0,0,1,0-2.6,1.21,1.21,0,0,1,1.11.77h.28a2.79,2.79,0,0,1,2.84-1.65C181,79.15,182.32,80.05,182.32,81.15Z" transform="translate(-20 -20.2)"/><use width="110.87" height="76.28" transform="matrix(-0.03, 0.03, -0.03, -0.04, 163.52, 57.69)" xlink:href="#wing"/><use width="110.87" height="76.28" transform="matrix(-0.04, -0.02, 0.02, -0.05, 161.96, 66.24)" xlink:href="#wing"/><use width="110.87" height="76.28" transform="matrix(-0.01, 0.01, -0.01, -0.01, 161.46, 59.55)" xlink:href="#wing"/><use width="110.87" height="76.28" transform="matrix(-0.01, -0.01, 0.01, -0.02, 160.89, 62.66)" xlink:href="#wing"/><ellipse class="cls-1" cx="155" cy="61.87" rx="0.72" ry="0.77"/><use width="31.09" height="31.09" transform="translate(154.28 59.31) scale(0.05 0.05)" xlink:href="#eye"/><ellipse class="cls-11" cx="154.78" cy="61.99" rx="0.43" ry="0.49"/><use width="55.56" height="50.48" transform="matrix(-0.03, 0.03, -0.02, -0.03, 158.88, 63.28)" xlink:href="#leg"/><use width="55.56" height="50.48" transform="translate(156.2 57.61) scale(0.03 0.04)" xlink:href="#leg"/><use width="55.56" height="50.48" transform="matrix(-0.04, -0.03, 0.03, -0.04, 174.17, 74.89)" xlink:href="#leg"/><use width="55.56" height="50.48" transform="matrix(0.05, -0.01, 0, 0.05, 172.51, 67.32)" xlink:href="#leg"/><path class="cls-5" d="M195.32,91.15c0,1.1-1.29,2-2.88,2a2.91,2.91,0,0,1-2.79-1.48h-.26a1.23,1.23,0,0,1-1.18,1,1.3,1.3,0,0,1,0-2.6,1.21,1.21,0,0,1,1.11.77h.28a2.79,2.79,0,0,1,2.84-1.65C194,89.15,195.32,90.05,195.32,91.15Z" transform="translate(-20 -20.2)"/><use width="110.87" height="76.28" transform="matrix(-0.03, 0.03, -0.03, -0.04, 176.52, 67.69)" xlink:href="#wing"/><use width="110.87" height="76.28" transform="matrix(-0.04, -0.02, 0.02, -0.05, 174.96, 76.24)" xlink:href="#wing"/><use width="110.87" height="76.28" transform="matrix(-0.01, 0.01, -0.01, -0.01, 174.46, 69.55)" xlink:href="#wing"/><use width="110.87" height="76.28" transform="matrix(-0.01, -0.01, 0.01, -0.02, 173.89, 72.66)" xlink:href="#wing"/><ellipse class="cls-1" cx="168" cy="71.87" rx="0.72" ry="0.77"/><use width="31.09" height="31.09" transform="translate(167.28 69.31) scale(0.05 0.05)" xlink:href="#eye"/><ellipse class="cls-12" cx="167.78" cy="71.99" rx="0.43" ry="0.49"/><use width="55.56" height="50.48" transform="matrix(-0.03, 0.03, -0.02, -0.03, 171.88, 73.28)" xlink:href="#leg"/><use width="55.56" height="50.48" transform="translate(169.2 67.61) scale(0.03 0.04)" xlink:href="#leg"/><use width="55.56" height="50.48" transform="matrix(-0.12, -0.09, 0.09, -0.12, 108.9, 93.04)" xlink:href="#leg"/><use width="55.56" height="50.48" transform="matrix(0.15, -0.02, 0.02, 0.15, 103.36, 69.56)" xlink:href="#leg"/><path class="cls-5" d="M132.75,101c0,3.42-4.31,6.19-9.62,6.19-4.46,0-8.2-2-9.29-4.6H113a4,4,0,1,1-.22-2.65h.91c.79-2.91,4.73-5.12,9.47-5.12C128.44,94.82,132.75,97.59,132.75,101Z" transform="translate(-20 -20.2)"/><use width="110.87" height="76.28" transform="matrix(-0.11, 0.1, -0.1, -0.11, 116.73, 70.7)" xlink:href="#wing"/><use width="110.87" height="76.28" transform="matrix(-0.13, -0.06, 0.08, -0.17, 111.52, 97.25)" xlink:href="#wing"/><use width="110.87" height="76.28" transform="matrix(-0.04, 0.04, -0.04, -0.04, 109.87, 76.47)" xlink:href="#wing"/><use width="110.87" height="76.28" transform="matrix(-0.05, -0.02, 0.03, -0.06, 107.98, 86.14)" xlink:href="#wing"/><ellipse class="cls-1" cx="88.33" cy="83.69" rx="2.4" ry="2.4"/><use width="31.09" height="31.09" transform="translate(85.92 75.74) scale(0.15 0.15)" xlink:href="#eye"/><ellipse class="cls-13" cx="87.6" cy="84.04" rx="1.42" ry="1.51"/><use width="55.56" height="50.48" transform="matrix(-0.08, 0.08, -0.08, -0.08, 101.27, 88.06)" xlink:href="#leg"/><use width="55.56" height="50.48" transform="translate(92.33 70.46) scale(0.11 0.11)" xlink:href="#leg"/><use width="55.56" height="50.48" transform="matrix(-0.12, -0.09, 0.09, -0.12, 103.9, 37.04)" xlink:href="#leg"/><use width="55.56" height="50.48" transform="matrix(0.15, -0.02, 0.02, 0.15, 98.36, 13.56)" xlink:href="#leg"/><path class="cls-5" d="M127.75,45c0,3.42-4.31,6.19-9.62,6.19-4.46,0-8.2-2-9.29-4.6H108a4,4,0,1,1-.22-2.65h.91c.79-2.91,4.73-5.12,9.47-5.12C123.44,38.82,127.75,41.59,127.75,45Z" transform="translate(-20 -20.2)"/><use width="110.87" height="76.28" transform="matrix(-0.11, 0.1, -0.1, -0.11, 111.73, 14.7)" xlink:href="#wing"/><use width="110.87" height="76.28" transform="matrix(-0.13, -0.06, 0.08, -0.17, 106.52, 41.25)" xlink:href="#wing"/><use width="110.87" height="76.28" transform="matrix(-0.04, 0.04, -0.04, -0.04, 104.87, 20.47)" xlink:href="#wing"/><use width="110.87" height="76.28" transform="matrix(-0.05, -0.02, 0.03, -0.06, 102.98, 30.14)" xlink:href="#wing"/><ellipse class="cls-1" cx="83.33" cy="27.69" rx="2.4" ry="2.4"/><use width="31.09" height="31.09" transform="translate(80.92 19.74) scale(0.15 0.15)" xlink:href="#eye"/><ellipse class="cls-14" cx="82.6" cy="28.04" rx="1.42" ry="1.51"/><use width="55.56" height="50.48" transform="matrix(-0.08, 0.08, -0.08, -0.08, 96.27, 32.06)" xlink:href="#leg"/><use width="55.56" height="50.48" transform="translate(87.33 14.46) scale(0.11 0.11)" xlink:href="#leg"/><g id="fly-mouth1"><use width="55.56" height="50.48" transform="matrix(-0.26, -0.2, 0.2, -0.26, 55.7, 59.85)" xlink:href="#leg"/><use width="55.56" height="50.48" transform="matrix(0.33, -0.03, 0.03, 0.33, 44.45, 9.43)" xlink:href="#leg"/><path class="cls-5" d="M84.19,53.94c-.08,7.32-9.33,13.14-20.64,13-9.5-.1-17.44-4.37-19.69-10.07l-1.86,0a8.66,8.66,0,1,1-.41-5.68l1.95,0C45.29,45,53.74,40.35,63.85,40.47,75.17,40.6,84.27,46.63,84.19,53.94Z" transform="translate(-20 -20.2)"/><use width="110.87" height="76.28" transform="matrix(-0.25, 0.22, -0.22, -0.25, 72.92, 12.21)" xlink:href="#wing"/><use width="110.87" height="76.28" transform="matrix(-0.28, -0.14, 0.18, -0.36, 61.17, 68.94)" xlink:href="#wing"/><use width="110.87" height="76.28" transform="matrix(-0.09, 0.08, -0.08, -0.09, 58.17, 24.39)" xlink:href="#wing"/><use width="110.87" height="76.28" transform="matrix(-0.1, -0.05, 0.06, -0.13, 53.89, 45.06)" xlink:href="#wing"/><ellipse class="cls-1" cx="32.08" cy="59.53" rx="5.14" ry="5.12" transform="translate(-47.82 70.73) rotate(-89.35)"/><use width="31.09" height="31.09" transform="translate(7.15 22.25) rotate(0.65) scale(0.33 0.33)" xlink:href="#eye"/><ellipse class="cls-15" cx="30.52" cy="60.26" rx="3.24" ry="3.03" transform="translate(-50.08 69.89) rotate(-89.35)"/><use width="55.56" height="50.48" transform="matrix(-0.22, 0.09, -0.09, -0.22, 37.89, 53.09)" xlink:href="#leg"/><use width="55.56" height="50.48" transform="translate(20.93 11.1) rotate(0.65) scale(0.23 0.23)" xlink:href="#leg"/><ellipse class="cls-16" cx="136.05" cy="75.39" rx="2.18" ry="0.6" transform="translate(39.11 190.37) rotate(-89.35)"/><ellipse class="cls-16" cx="142.05" cy="97.39" rx="1.5" ry="0.5" transform="translate(22.61 217.81) rotate(-89.17)"/><ellipse class="cls-16" cx="100.05" cy="45.39" rx="1" ry="0.5" transform="translate(32.1 124.03) rotate(-88.52)"/><ellipse class="cls-16" cx="27.05" cy="54.39" rx="2.18" ry="0.6" transform="translate(-47.65 60.61) rotate(-89.35)"/><path class="cls-16" d="M21.64,95.4c0,1.2-.29,2.18-.62,2.17s1.42-1,1.43-2.19-1.71-2.18-1.38-2.17S21.66,94.19,21.64,95.4Z" transform="translate(-20 -20.2)"/></g><path class="cls-16" d="M77.52,87.15" transform="translate(-20 -20.2)"/><path class="cls-16" d="M77.47,91.52" transform="translate(-20 -20.2)"/><path class="cls-16" d="M105.47,103.52c-.33,0-.58-1-.57-2.19s.29-2.18.62-2.18" transform="translate(-20 -20.2)"/><path class="cls-16" d="M94.47,74.52c-.33,0-.58-1-.57-2.19s.29-2.18.62-2.18" transform="translate(-20 -20.2)"/><path class="cls-16" d="M165.06,97.19c-.33,0-.58-.45-.57-1s.29-1,.62-1" transform="translate(-20 -20.2)"/><path class="cls-16" d="M187.06,92.19c-.33,0-.58-.45-.57-1s.29-1,.62-1" transform="translate(-20 -20.2)"/><path class="cls-16" d="M174.06,82.19c-.33,0-.58-.45-.57-1s.29-1,.62-1" transform="translate(-20 -20.2)"/></g></svg>