<svg xmlns="http://www.w3.org/2000/svg" viewBox="0 0 1284.5 1049.32"><g id="Ebene_2" data-name="Ebene 2"><rect x="138.54" y="490.43" width="316.43" height="399.15" transform="translate(-442.07 549.88) rotate(-55.74)" style="fill:none"/><polyline points="226.85 658.58 262.49 652.05 266.64 651.3" style="fill:none;stroke:#333030;stroke-miterlimit:10;stroke-width:5px"/><line x1="153.26" y1="672.07" x2="223.46" y2="659.21" style="fill:none;stroke:#333030;stroke-miterlimit:10;stroke-width:5px"/><path d="M228.27,655.48a17.47,17.47,0,0,1-3.31.62Z" transform="translate(-1.5 3.11)" style="fill:none;stroke:#333030;stroke-miterlimit:10;stroke-width:4.11857944085762px"/><path d="M438,596.91c60.94,41.51,74.16,128.26,29.54,193.76S337.33,875.61,276.4,834.1c-44.65-30.41-60.68-88.61-53.72-134.75C227.58,666.87,260.19,654,264,649l0,0c2-2.91-.36-31.3,24.26-46.08C321.76,582.75,388.1,562.93,438,596.91Z" transform="translate(-1.5 3.11)" style="fill:none;stroke:#333030;stroke-miterlimit:10;stroke-width:3.52837865828711px"/><path d="M225,656.1c-14.52,1.36-36.9-12.07-55.31-34.55-22.64-27.62-30.72-58.42-18.05-68.81s41.29,3.6,63.92,31.22,30.72,58.43,18,68.81a14.51,14.51,0,0,1-5.22,2.7h-.08Z" transform="translate(-1.5 3.11)" style="fill:none;stroke:#333030;stroke-miterlimit:10;stroke-width:3.52837865828711px"/><path d="M140.19,772.39c-12.87-5.6-13.41-32.87-1.2-60.93s32.51-46.26,45.38-40.67,13.41,32.88,1.2,60.94S153.05,778,140.19,772.39Z" transform="translate(-1.5 3.11)" style="fill:none;stroke:#333030;stroke-miterlimit:10;stroke-width:3.52837865828711px"/><rect x="666.93" y="509.9" width="399.15" height="316.43" style="fill:none"/><polyline points="790.53 678.09 816.31 652.63 819.31 649.66" style="fill:none;stroke:#333030;stroke-miterlimit:10;stroke-width:5px"/><line x1="737.31" y1="730.66" x2="788.08" y2="680.51" style="fill:none;stroke:#333030;stroke-miterlimit:10;stroke-width:5px"/><path d="M792,675a17.29,17.29,0,0,1-2.39,2.37Z" transform="translate(-1.5 3.11)" style="fill:none;stroke:#333030;stroke-miterlimit:10;stroke-width:4.11857944085762px"/><path d="M932.31,508.55c73.73,0,133.5,64.25,133.5,143.5s-59.77,143.5-133.5,143.5c-54,0-100-39.07-120.26-81.12-14.24-29.6,5.47-58.59,5.76-64.88v0c0-3.54-17.92-25.66-5.89-51.74C828.29,562.28,872,508.55,932.31,508.55Z" transform="translate(-1.5 3.11)" style="fill:none;stroke:#333030;stroke-miterlimit:10;stroke-width:3.52837865828711px"/><path d="M789.58,677.4c-11.23,9.3-37.29,10.8-65.16,2.59-34.26-10.08-58.28-31-53.66-46.7S706.91,613,741.17,623.1s58.28,31,53.65,46.7A14.39,14.39,0,0,1,792,675L792,675Z" transform="translate(-1.5 3.11)" style="fill:none;stroke:#333030;stroke-miterlimit:10;stroke-width:3.52837865828711px"/><path d="M785,821.24c-13.79,2.62-29.59-19.62-35.3-49.68s.83-56.54,14.61-59.16,29.59,19.62,35.3,49.68S798.78,818.63,785,821.24Z" transform="translate(-1.5 3.11)" style="fill:none;stroke:#333030;stroke-miterlimit:10;stroke-width:3.52837865828711px"/><rect x="861.57" y="86.57" width="179.46" height="226.37" transform="translate(-22.13 188.14) rotate(-10.99)" style="fill:none"/><polyline points="936.04 161.65 953 173.25 954.97 174.6" style="fill:none;stroke:#333030;stroke-miterlimit:10;stroke-width:2.83567160367966px"/><line x1="901.01" y1="137.7" x2="934.42" y2="160.55" style="fill:none;stroke:#333030;stroke-miterlimit:10;stroke-width:2.83567160367966px"/><path d="M937.5,158.51a10.06,10.06,0,0,1-1.58-1.08Z" transform="translate(-1.5 3.11)" style="fill:none;stroke:#333030;stroke-miterlimit:10;stroke-width:2.33578775358776px"/><path d="M1045.36,218.64c8,41.05-21.34,81.27-65.46,89.84s-86.36-17.76-94.33-58.81c-5.84-30.07,10.94-59.92,32.16-75.72,14.94-11.13,33.21-3.29,36.75-3.81h0c2-.36,12.35-12.75,28.17-8.87C1004.2,166.54,1038.83,185,1045.36,218.64Z" transform="translate(-1.5 3.11)" style="fill:none;stroke:#333030;stroke-miterlimit:10;stroke-width:2.00106463366682px"/><path d="M935.92,157.43c-6.39-5.24-10-19.59-8.49-36,1.91-20.17,11-35.8,20.2-34.93s15.2,17.94,13.29,38.1-11,35.8-20.2,34.92a8,8,0,0,1-3.18-1,.05.05,0,0,1,0,0Z" transform="translate(-1.5 3.11)" style="fill:none;stroke:#333030;stroke-miterlimit:10;stroke-width:2.00106463366682px"/><path d="M855.34,170.44c-3-7.4,7.73-18.6,23.85-25s31.56-5.65,34.51,1.74-7.72,18.59-23.84,25S858.29,177.83,855.34,170.44Z" transform="translate(-1.5 3.11)" style="fill:none;stroke:#333030;stroke-miterlimit:10;stroke-width:2.00106463366682px"/><rect x="986.9" y="761.99" width="279.53" height="221.6" transform="translate(-140.78 1530.5) rotate(-65.11)" style="fill:none"/><polyline points="1141.23 824.7 1149.8 848.58 1150.8 851.36" style="fill:none;stroke:#333030;stroke-miterlimit:10;stroke-width:3.50152730941772px"/><line x1="1123.52" y1="775.4" x2="1140.41" y2="822.43" style="fill:none;stroke:#333030;stroke-miterlimit:10;stroke-width:3.50152730941772px"/><path d="M1142.71,821.53a11.56,11.56,0,0,1-.8-2.21Z" transform="translate(-1.5 3.11)" style="fill:none;stroke:#333030;stroke-miterlimit:10;stroke-width:2.88426367763387px"/><path d="M1207.09,959.76c-21.73,46.83-80.17,65.86-130.51,42.5S1003,922,1024.78,875.15c15.92-34.31,54.31-52,87-52.48,23-.32,35.61,20.75,39.52,22.79h0c2.24,1.06,21.58-3.82,34.6,11.51C1203.62,877.84,1224.89,921.41,1207.09,959.76Z" transform="translate(-1.5 3.11)" style="fill:none;stroke:#333030;stroke-miterlimit:10;stroke-width:2.4709428459918px"/><path d="M1141.91,819.32c-2.6-9.88,4.13-26.88,17.56-42.16,16.5-18.79,36.87-27.89,45.48-20.32s2.23,28.94-14.28,47.73-36.87,27.89-45.48,20.31a9.94,9.94,0,0,1-2.46-3.29.08.08,0,0,1,0-.06Z" transform="translate(-1.5 3.11)" style="fill:none;stroke:#333030;stroke-miterlimit:10;stroke-width:2.4709428459918px"/><path d="M1051.88,774c2.4-9.53,21.19-13,42-7.77s35.67,17.19,33.27,26.72-21.18,13-42,7.77S1049.48,783.53,1051.88,774Z" transform="translate(-1.5 3.11)" style="fill:none;stroke:#333030;stroke-miterlimit:10;stroke-width:2.4709428459918px"/><rect x="272.18" y="61.79" width="417.92" height="527.17" transform="translate(-93.54 234.51) rotate(-24.76)" style="fill:none"/><polyline points="425.66 242.89 470.46 259.73 475.67 261.69" style="fill:none;stroke:#333030;stroke-miterlimit:10;stroke-width:6.60373747348785px"/><line x1="333.17" y1="208.14" x2="421.39" y2="241.3" style="fill:none;stroke:#333030;stroke-miterlimit:10;stroke-width:6.60373747348785px"/><path d="M427.06,239.74a23.56,23.56,0,0,1-4.17-1.56Z" transform="translate(-1.5 3.11)" style="fill:none;stroke:#333030;stroke-miterlimit:10;stroke-width:5.43960347822563px"/><path d="M704.35,316c40.78,88.43-3.22,195.65-98.27,239.48s-205.17,7.68-246-80.75c-29.88-64.78-8.47-141.59,30.78-189.1,27.62-33.45,73.3-25.84,81-29l0,0c4.26-1.92,20.86-35.68,58.79-35.68C582.37,220.94,671,243.58,704.35,316Z" transform="translate(-1.5 3.11)" style="fill:none;stroke:#333030;stroke-miterlimit:10;stroke-width:4.66009727327708px"/><path d="M422.89,238.18c-17.36-8.32-33.57-38.75-39.14-76.72-6.86-46.66,4.93-87,26.33-90.18s44.32,32.14,51.16,78.81-4.93,87-26.33,90.17a19,19,0,0,1-7.75-.48.26.26,0,0,1-.1,0Z" transform="translate(-1.5 3.11)" style="fill:none;stroke:#333030;stroke-miterlimit:10;stroke-width:4.66009727327708px"/><path d="M247.84,312.25c-10.77-15.09,7.17-46.34,40.06-69.82s68.28-30.28,79-15.2-7.17,46.34-40.06,69.82S258.6,327.33,247.84,312.25Z" transform="translate(-1.5 3.11)" style="fill:none;stroke:#333030;stroke-miterlimit:10;stroke-width:4.66009727327708px"/></g><g id="Ebene_2_Kopie" data-name="Ebene 2 Kopie"><rect x="138.54" y="490.43" width="316.43" height="399.15" transform="translate(-442.07 549.88) rotate(-55.74)" style="fill:none"/><polyline points="226.85 658.58 262.49 652.05 266.64 651.3" style="fill:none;stroke:#333030;stroke-miterlimit:10;stroke-width:5px"/><line x1="153.26" y1="672.07" x2="223.46" y2="659.21" style="fill:none;stroke:#333030;stroke-miterlimit:10;stroke-width:5px"/><path d="M228.27,655.48a17.47,17.47,0,0,1-3.31.62Z" transform="translate(-1.5 3.11)" style="fill:none;stroke:#333030;stroke-miterlimit:10;stroke-width:4.11857944085762px"/><path d="M438,596.91c60.94,41.51,74.16,128.26,29.54,193.76S337.33,875.61,276.4,834.1c-44.65-30.41-60.68-88.61-53.72-134.75C227.58,666.87,260.19,654,264,649l0,0c2-2.91-.36-31.3,24.26-46.08C321.76,582.75,388.1,562.93,438,596.91Z" transform="translate(-1.5 3.11)" style="fill:none;stroke:#333030;stroke-miterlimit:10;stroke-width:3.52837865828711px"/><path d="M225,656.1c-14.52,1.36-36.9-12.07-55.31-34.55-22.64-27.62-30.72-58.42-18.05-68.81s41.29,3.6,63.92,31.22,30.72,58.43,18,68.81a14.51,14.51,0,0,1-5.22,2.7h-.08Z" transform="translate(-1.5 3.11)" style="fill:none;stroke:#333030;stroke-miterlimit:10;stroke-width:3.52837865828711px"/><path d="M140.19,772.39c-12.87-5.6-13.41-32.87-1.2-60.93s32.51-46.26,45.38-40.67,13.41,32.88,1.2,60.94S153.05,778,140.19,772.39Z" transform="translate(-1.5 3.11)" style="fill:none;stroke:#333030;stroke-miterlimit:10;stroke-width:3.52837865828711px"/><rect x="666.93" y="509.9" width="399.15" height="316.43" style="fill:none"/><polyline points="790.53 678.09 816.31 652.63 819.31 649.66" style="fill:none;stroke:#333030;stroke-miterlimit:10;stroke-width:5px"/><line x1="737.31" y1="730.66" x2="788.08" y2="680.51" style="fill:none;stroke:#333030;stroke-miterlimit:10;stroke-width:5px"/><path d="M792,675a17.29,17.29,0,0,1-2.39,2.37Z" transform="translate(-1.5 3.11)" style="fill:none;stroke:#333030;stroke-miterlimit:10;stroke-width:4.11857944085762px"/><path d="M932.31,508.55c73.73,0,133.5,64.25,133.5,143.5s-59.77,143.5-133.5,143.5c-54,0-100-39.07-120.26-81.12-14.24-29.6,5.47-58.59,5.76-64.88v0c0-3.54-17.92-25.66-5.89-51.74C828.29,562.28,872,508.55,932.31,508.55Z" transform="translate(-1.5 3.11)" style="fill:none;stroke:#333030;stroke-miterlimit:10;stroke-width:3.52837865828711px"/><path d="M789.58,677.4c-11.23,9.3-37.29,10.8-65.16,2.59-34.26-10.08-58.28-31-53.66-46.7S706.91,613,741.17,623.1s58.28,31,53.65,46.7A14.39,14.39,0,0,1,792,675L792,675Z" transform="translate(-1.5 3.11)" style="fill:none;stroke:#333030;stroke-miterlimit:10;stroke-width:3.52837865828711px"/><path d="M785,821.24c-13.79,2.62-29.59-19.62-35.3-49.68s.83-56.54,14.61-59.16,29.59,19.62,35.3,49.68S798.78,818.63,785,821.24Z" transform="translate(-1.5 3.11)" style="fill:none;stroke:#333030;stroke-miterlimit:10;stroke-width:3.52837865828711px"/><rect x="861.57" y="86.57" width="179.46" height="226.37" transform="translate(-22.13 188.14) rotate(-10.99)" style="fill:none"/><polyline points="936.04 161.65 953 173.25 954.97 174.6" style="fill:none;stroke:#333030;stroke-miterlimit:10;stroke-width:2.83567160367966px"/><line x1="901.01" y1="137.7" x2="934.42" y2="160.55" style="fill:none;stroke:#333030;stroke-miterlimit:10;stroke-width:2.83567160367966px"/><path d="M937.5,158.51a10.06,10.06,0,0,1-1.58-1.08Z" transform="translate(-1.5 3.11)" style="fill:none;stroke:#333030;stroke-miterlimit:10;stroke-width:2.33578775358776px"/><path d="M1045.36,218.64c8,41.05-21.34,81.27-65.46,89.84s-86.36-17.76-94.33-58.81c-5.84-30.07,10.94-59.92,32.16-75.72,14.94-11.13,33.21-3.29,36.75-3.81h0c2-.36,12.35-12.75,28.17-8.87C1004.2,166.54,1038.83,185,1045.36,218.64Z" transform="translate(-1.5 3.11)" style="fill:none;stroke:#333030;stroke-miterlimit:10;stroke-width:2.00106463366682px"/><path d="M935.92,157.43c-6.39-5.24-10-19.59-8.49-36,1.91-20.17,11-35.8,20.2-34.93s15.2,17.94,13.29,38.1-11,35.8-20.2,34.92a8,8,0,0,1-3.18-1,.05.05,0,0,1,0,0Z" transform="translate(-1.5 3.11)" style="fill:none;stroke:#333030;stroke-miterlimit:10;stroke-width:2.00106463366682px"/><path d="M855.34,170.44c-3-7.4,7.73-18.6,23.85-25s31.56-5.65,34.51,1.74-7.72,18.59-23.84,25S858.29,177.83,855.34,170.44Z" transform="translate(-1.5 3.11)" style="fill:none;stroke:#333030;stroke-miterlimit:10;stroke-width:2.00106463366682px"/><rect x="986.9" y="761.99" width="279.53" height="221.6" transform="translate(-140.78 1530.5) rotate(-65.11)" style="fill:none"/><polyline points="1141.23 824.7 1149.8 848.58 1150.8 851.36" style="fill:none;stroke:#333030;stroke-miterlimit:10;stroke-width:3.50152730941772px"/><line x1="1123.52" y1="775.4" x2="1140.41" y2="822.43" style="fill:none;stroke:#333030;stroke-miterlimit:10;stroke-width:3.50152730941772px"/><path d="M1142.71,821.53a11.56,11.56,0,0,1-.8-2.21Z" transform="translate(-1.5 3.11)" style="fill:none;stroke:#333030;stroke-miterlimit:10;stroke-width:2.88426367763387px"/><path d="M1207.09,959.76c-21.73,46.83-80.17,65.86-130.51,42.5S1003,922,1024.78,875.15c15.92-34.31,54.31-52,87-52.48,23-.32,35.61,20.75,39.52,22.79h0c2.24,1.06,21.58-3.82,34.6,11.51C1203.62,877.84,1224.89,921.41,1207.09,959.76Z" transform="translate(-1.5 3.11)" style="fill:none;stroke:#333030;stroke-miterlimit:10;stroke-width:2.4709428459918px"/><path d="M1141.91,819.32c-2.6-9.88,4.13-26.88,17.56-42.16,16.5-18.79,36.87-27.89,45.48-20.32s2.23,28.94-14.28,47.73-36.87,27.89-45.48,20.31a9.94,9.94,0,0,1-2.46-3.29.08.08,0,0,1,0-.06Z" transform="translate(-1.5 3.11)" style="fill:none;stroke:#333030;stroke-miterlimit:10;stroke-width:2.4709428459918px"/><path d="M1051.88,774c2.4-9.53,21.19-13,42-7.77s35.67,17.19,33.27,26.72-21.18,13-42,7.77S1049.48,783.53,1051.88,774Z" transform="translate(-1.5 3.11)" style="fill:none;stroke:#333030;stroke-miterlimit:10;stroke-width:2.4709428459918px"/><rect x="272.18" y="61.79" width="417.92" height="527.17" transform="translate(-93.54 234.51) rotate(-24.76)" style="fill:none"/><polyline points="425.66 242.89 470.46 259.73 475.67 261.69" style="fill:none;stroke:#333030;stroke-miterlimit:10;stroke-width:6.60373747348785px"/><line x1="333.17" y1="208.14" x2="421.39" y2="241.3" style="fill:none;stroke:#333030;stroke-miterlimit:10;stroke-width:6.60373747348785px"/><path d="M427.06,239.74a23.56,23.56,0,0,1-4.17-1.56Z" transform="translate(-1.5 3.11)" style="fill:none;stroke:#333030;stroke-miterlimit:10;stroke-width:5.43960347822563px"/><path d="M704.35,316c40.78,88.43-3.22,195.65-98.27,239.48s-205.17,7.68-246-80.75c-29.88-64.78-8.47-141.59,30.78-189.1,27.62-33.45,73.3-25.84,81-29l0,0c4.26-1.92,20.86-35.68,58.79-35.68C582.37,220.94,671,243.58,704.35,316Z" transform="translate(-1.5 3.11)" style="fill:none;stroke:#333030;stroke-miterlimit:10;stroke-width:4.66009727327708px"/><path d="M422.89,238.18c-17.36-8.32-33.57-38.75-39.14-76.72-6.86-46.66,4.93-87,26.33-90.18s44.32,32.14,51.16,78.81-4.93,87-26.33,90.17a19,19,0,0,1-7.75-.48.26.26,0,0,1-.1,0Z" transform="translate(-1.5 3.11)" style="fill:none;stroke:#333030;stroke-miterlimit:10;stroke-width:4.66009727327708px"/><path d="M247.84,312.25c-10.77-15.09,7.17-46.34,40.06-69.82s68.28-30.28,79-15.2-7.17,46.34-40.06,69.82S258.6,327.33,247.84,312.25Z" transform="translate(-1.5 3.11)" style="fill:none;stroke:#333030;stroke-miterlimit:10;stroke-width:4.66009727327708px"/><polyline points="2.48 258.5 3.98 258.5 237.44 259.24 490.48 260.03 748.99 260.84 1024.48 261.7 1279.48 262.5 1281.48 520.5 1024.48 519.9 749.49 519.25 490.48 518.64 237.4 518.05 4.49 517.5 3.48 517.5 3.48 780.5 5 780.5 237.36 780.32 490.48 780.12 750 779.91 1024.48 779.7 1279.48 779.5 1281.48 1028.5 322.14 1024.74 237.32 1024.41 5.48 1023.5 5 780.5 2.49 517.5 1.98 258.5 3.48 1.5 237.48 1.87 490.48 2.26 748.48 2.67 1024.48 3.1 1024.48 1.5 1279.48 3.5 1021.48 3.1 1021.48 261.7 1024.48 519.9 1024.48 779.7 1024.48 1025.5 750.48 1022.5 750 779.91 749.49 519.25 746.99 260.84 746.48 2.67 748.48 1.5 490.48 0.5 488.48 2.26 488.48 260.03 490.48 518.64 490.48 780.12 490.48 1022.5 322.14 1024.74 237.32 1025.87 237.32 1024.41 237.36 780.32 235.4 518.05 235.44 259.24 237.48 1.87 237.48 0.5" style="fill:none;stroke:#1e0f0f;stroke-miterlimit:10"/></g><g id="_12" data-name="12"><polyline points="0 258.61 1.5 258.61 234.96 259.35 488 260.14 746.51 260.95 1022 261.81 1277 262.61 1279 520.61 1022 520.01 747.01 519.36 488 518.75 234.92 518.16 2.01 517.61 1 517.61 1 780.61 2.52 780.61 234.88 780.43 488 780.23 747.52 780.02 1022 779.81 1277 779.61 1279 1028.61 319.66 1024.85 234.84 1024.52 3 1023.61 2.52 780.61 2.01 517.61 1.5 258.61 1 1.61 235 1.98 488 2.37 746 2.78 1022 3.21 1022 1.61 1277 3.61 1022 3.21 1022 261.81 1022 520.01 1022 779.81 1022 1025.61 748 1022.61 747.52 780.02 747.01 519.36 746.51 260.95 746 2.78 746 1.61 488 0.61 488 2.37 488 260.14 488 518.75 488 780.23 488 1022.61 319.66 1024.85 234.84 1025.98 234.84 1024.52 234.88 780.43 234.92 518.16 234.96 259.35 235 1.98 235 0.61" style="fill:none;stroke:#1e0f0f;stroke-miterlimit:10"/></g></svg>