<svg xmlns="http://www.w3.org/2000/svg" viewBox="0 0 99 100"><g id="mute_Kopie" data-name="mute Kopie"><g style="opacity:0.2"><path d="M60.53,77.69a8.26,8.26,0,0,1-5.26-2l-9.05-7.45a6.69,6.69,0,0,1-3.86,1.23H23.1c-4.09,0-7.29-3.7-7.29-8.42V39.25c0-4.73,3.2-8.42,7.29-8.42H42.36a6.66,6.66,0,0,1,4,1.3l7.76-7.41a8.41,8.41,0,0,1,5.77-2.41c5.21,0,9.23,4.86,9.36,11.3l.67,32.16a12.86,12.86,0,0,1-3.34,9.28A8.43,8.43,0,0,1,60.53,77.69Z" transform="translate(-1.5 -0.5)"/><path d="M59.85,27.5C62,27.5,64,30.05,64,33.71l.67,32.17c.08,3.81-1.94,6.62-4.16,6.62a3.1,3.1,0,0,1-2-.77L44.46,60.12v1c0,1.78-.93,3.23-2.1,3.23H23.1c-1.16,0-2.1-1.45-2.1-3.23V39.25c0-1.78.94-3.24,2.1-3.24H42.36c1.17,0,2.1,1.46,2.1,3.24v1.82l13.2-12.6a3.16,3.16,0,0,1,2.19-1m0-10.38h0A13.58,13.58,0,0,0,50.5,21l-5.26,5a12.34,12.34,0,0,0-2.88-.34H23.1c-7,0-12.48,6-12.48,13.61V61.1c0,7.63,5.48,13.61,12.48,13.61H42.36a11.65,11.65,0,0,0,3-.39L52,79.74a13.36,13.36,0,0,0,8.56,3.14,13.57,13.57,0,0,0,9.71-4.19,18.1,18.1,0,0,0,4.83-13L74.4,33.49C74.21,24.16,68,17.12,59.85,17.12Z" transform="translate(-1.5 -0.5)" style="fill:#fff"/></g><line x1="83.5" y1="29.5" x2="83.5" y2="65.5" style="fill:none;stroke:#fff;stroke-miterlimit:10;stroke-width:4px"/><line x1="83.5" y1="29.5" x2="83.5" y2="65.5" style="fill:none;stroke:#fff;stroke-linecap:round;stroke-miterlimit:10;stroke-width:4px"/><line x1="91.5" y1="26" x2="91.5" y2="69" style="fill:none;stroke:#fff;stroke-linecap:round;stroke-miterlimit:10;stroke-width:4.658px"/><line id="mutepath" x1="0.5" y1="0.5" x2="98.5" y2="99.5" style="fill:none;stroke:#fff;stroke-linecap:round;stroke-miterlimit:10"/></g></svg>