<?xml version="1.0" encoding="utf-8"?>
<!-- Generator: Adobe Illustrator 24.1.1, SVG Export Plug-In . SVG Version: 6.00 Build 0)  -->
<svg version="1.1" xmlns="http://www.w3.org/2000/svg" xmlns:xlink="http://www.w3.org/1999/xlink" x="0px" y="0px"
	 viewBox="0 0 1125.9 945.7" style="enable-background:new 0 0 1125.9 945.7;" xml:space="preserve">
<style type="text/css">
	.st0{display:none;}
	.st1{display:inline;fill:#29424C;stroke:#000000;stroke-miterlimit:10;}
	.st2{opacity:0.2;}
	.st3{display:none;fill:#FFFFFF;}
	.st4{fill:#FFFFFF;stroke:#333030;stroke-width:5;stroke-miterlimit:10;}
	.st5{fill:none;stroke:#333030;stroke-width:5;stroke-miterlimit:10;}
	.st6{fill:#FFFFFF;stroke:#333030;stroke-width:4.1186;stroke-miterlimit:10;}
	.st7{fill:#FFFFFF;}
	.st8{fill:#FFFFFF;stroke:#333030;stroke-width:3.5284;stroke-miterlimit:10;}
	.st9{fill:#FFFFFF;stroke:#333030;stroke-width:4.5561;stroke-miterlimit:10;}
	.st10{fill:none;stroke:#333030;stroke-width:4.5561;stroke-miterlimit:10;}
	.st11{fill:#FFFFFF;stroke:#333030;stroke-width:3.753;stroke-miterlimit:10;}
	.st12{display:none;fill:#FFFFFF;stroke:#333030;stroke-width:3.2152;stroke-miterlimit:10;}
	.st13{fill:#FFFFFF;stroke:#333030;stroke-width:3.2152;stroke-miterlimit:10;}
	.st14{fill:#FFFFFF;stroke:#333030;stroke-width:4.1728;stroke-miterlimit:10;}
	.st15{fill:none;stroke:#333030;stroke-width:4.1728;stroke-miterlimit:10;}
	.st16{fill:#FFFFFF;stroke:#333030;stroke-width:3.4372;stroke-miterlimit:10;}
	.st17{display:none;fill:none;stroke:#333030;stroke-width:2.9446;stroke-miterlimit:10;}
	.st18{fill:#FFFFFF;stroke:#333030;stroke-width:2.9446;stroke-miterlimit:10;}
	.st19{fill:#FFFFFF;stroke:#333030;stroke-width:5.1704;stroke-miterlimit:10;}
	.st20{fill:none;stroke:#333030;stroke-width:5.1704;stroke-miterlimit:10;}
	.st21{fill:#FFFFFF;stroke:#333030;stroke-width:4.259;stroke-miterlimit:10;}
</style>
<g id="Ebene_2" class="st0">
	<rect x="-1" y="42" class="st1" width="1127" height="907"/>
</g>
<g id="Ebene_6_Kopie">
	<g class="st2">
		<rect x="363.8" class="st3" width="399.1" height="316.4"/>
		<polyline class="st4" points="487.4,168.2 513.2,142.7 516.2,139.8 		"/>
		<line class="st5" x1="434.2" y1="220.8" x2="485" y2="170.6"/>
		<path class="st6" d="M487.4,168.3c-0.7,0.9-1.5,1.7-2.4,2.4L487.4,168.3z"/>
		<path class="st7" d="M627.7,1.8c73.7,0,133.5,64.3,133.5,143.5s-59.8,143.5-133.5,143.5c-54,0-100-39.1-120.3-81.1
			c-14.2-29.6,5.5-58.6,5.8-64.9l0,0c0-3.5-17.9-25.7-5.9-51.7C523.7,55.5,567.4,1.8,627.7,1.8z"/>
		<path class="st7" d="M485,170.6c-11.2,9.3-37.3,10.8-65.2,2.6c-34.3-10.1-58.3-31-53.7-46.7s36.1-20.3,70.4-10.2
			s58.3,31,53.6,46.7c-0.6,1.9-1.5,3.7-2.8,5.2c0,0,0,0-0.1,0.1L485,170.6z"/>
		<path class="st8" d="M480.4,314.5c-13.8,2.6-29.6-19.6-35.3-49.7s0.8-56.5,14.6-59.2s29.6,19.6,35.3,49.7S494.2,311.8,480.4,314.5
			z"/>
	</g>
	<g class="st2">
		
			<rect x="773.1" y="112.7" transform="matrix(0.2151 -0.9766 0.9766 0.2151 432.3842 1126.9888)" class="st3" width="288.3" height="363.7"/>
		<polyline class="st9" points="847.7,288.5 875.7,270.9 878.9,268.8 		"/>
		<line class="st10" x1="790.1" y1="324.9" x2="845.1" y2="290.2"/>
		<path class="st11" d="M847.7,288.5c-0.8,0.6-1.7,1.2-2.6,1.6L847.7,288.5z"/>
		<path class="st7" d="M1005.2,167.9c65.6,14.4,106.2,83.3,90.7,153.9s-81.3,116-146.9,101.5c-48.1-10.6-81.4-54.4-91.1-95.8
			c-6.9-29.1,16.3-51.1,17.8-56.6l0,0c0.7-3.1-10.9-26.3,4.9-47.2C902.1,195.3,951.5,156.1,1005.2,167.9z"/>
		<path class="st12" d="M845.1,290.2c-11.8,6.1-35.3,2.3-58.5-10.5c-28.5-15.7-45.8-39-38.6-52.1s36.1-11,64.7,4.7
			s45.8,39,38.6,52.1c-0.9,1.6-2.1,3-3.5,4c0,0,0,0-0.1,0L845.1,290.2z"/>
		<path class="st13" d="M812.8,417.3c-12.8-0.4-22.5-23.3-21.7-51.1s11.8-50.1,24.6-49.8s22.5,23.3,21.7,51.1
			S825.6,417.7,812.8,417.3z"/>
	</g>
	<g class="st2">
		
			<rect x="38.8" y="308.1" transform="matrix(0.5978 -0.8017 0.8017 0.5978 -270.2144 341.696)" class="st3" width="333.1" height="264.1"/>
		<polyline class="st14" points="236.6,384.3 240.8,414.2 241.3,417.7 		"/>
		<line class="st15" x1="228" y1="322.5" x2="236.2" y2="381.4"/>
		<path class="st16" d="M236.6,384.2c-0.2-0.9-0.4-1.8-0.4-2.8L236.6,384.2z"/>
		<path class="st7" d="M278.4,436.1c15.6,28.7,29.8,84.7-0.4,125.1c-36.8,49.3-109.6,57.3-162.6,17.7S49.2,467.3,86,418
			c26.9-36.1,76-47.4,114.3-40c26.9,5.2,36.5,32.9,40.5,36.2l0,0C243.2,416,266.9,415.1,278.4,436.1z"/>
		<path class="st17" d="M278,561.2c-36.8,49.3-109.6,57.3-162.6,17.7S49.2,467.3,86,418c26.9-36.1,76-47.4,114.3-40
			c26.9,5.2,36.5,32.9,40.5,36.2l0,0c2.4,1.8,26.1,0.8,37.6,21.9C294,464.8,308.1,520.8,278,561.2z"/>
		<path class="st18" d="M236.2,381.5c-0.6-12.2,11.4-30.3,30.8-44.9c23.8-17.9,49.8-23.5,58-12.6s-4.5,34.3-28.3,52.2
			s-49.8,23.5-58,12.6c-1-1.3-1.7-2.8-2.1-4.4c0,0,0,0,0-0.1L236.2,381.5z"/>
		<path class="st18" d="M142.3,306.6c5.1-10.5,27.9-10,50.8,1.2s37.4,28.8,32.3,39.3s-27.9,10-50.8-1.2S137.1,317.1,142.3,306.6z"/>
	</g>
	<g class="st2">
		<rect x="622.4" y="561.3" class="st3" width="412.8" height="327.2"/>
		<polyline class="st19" points="750.2,735.2 776.8,708.9 779.9,705.8 		"/>
		<line class="st20" x1="695.1" y1="789.6" x2="747.6" y2="737.7"/>
		<path class="st21" d="M750.1,735.3c-0.7,0.9-1.6,1.7-2.5,2.5L750.1,735.3z"/>
		<path class="st7" d="M895.2,563.1c76.2,0,138.1,66.4,138.1,148.4s-61.8,148.4-138.1,148.4c-55.9,0-103.5-40.4-124.4-83.9
			c-14.7-30.6,5.7-60.6,6-67.1l0,0c0-3.7-18.5-26.5-6.1-53.5C787.7,618.7,832.8,563.1,895.2,563.1z"/>
		<path class="st7" d="M747.6,737.7c-11.6,9.6-38.6,11.2-67.4,2.7c-35.4-10.4-60.3-32-55.5-48.3s37.4-21,72.8-10.5
			s60.3,32,55.5,48.3c-0.6,2-1.6,3.8-2.9,5.3l-0.1,0.1L747.6,737.7z"/>
		<path class="st7" d="M742.9,886.5c-14.3,2.7-30.6-20.3-36.5-51.4s0.8-58.5,15.1-61.2s30.6,20.3,36.5,51.4S757.2,883.8,742.9,886.5
			z"/>
	</g>
	<g class="st2">
		
			<rect x="182.2" y="533.4" transform="matrix(0.6756 -0.7373 0.7373 0.6756 -386.0848 505.8366)" class="st3" width="399.2" height="316.4"/>
		<polyline class="st4" points="425.7,628.9 427.1,665.1 427.2,669.3 		"/>
		<line class="st5" x1="422.9" y1="554.2" x2="425.6" y2="625.5"/>
		<path class="st6" d="M425.7,628.8c-0.2-1.1-0.2-2.2-0.1-3.4L425.7,628.8z"/>
		<path class="st7" d="M453.7,844.8c-49.8,54.4-137.6,55-196,1.5s-65.4-141-15.6-195.4c36.5-39.8,96.4-47.4,141.1-33.8
			c31.5,9.5,39.5,43.6,43.9,48.1l0,0c2.6,2.4,31,4.1,42.1,30.6C484.3,731.8,494.4,800.3,453.7,844.8z"/>
		<path class="st8" d="M425.6,625.5c0.7-14.6,17.2-34.8,42.1-49.8c30.6-18.5,62.2-22,70.7-8s-9.5,40.3-40.1,58.8s-62.2,22-70.7,8
			c-1-1.7-1.7-3.6-1.9-5.5c0,0,0-0.1,0-0.1L425.6,625.5z"/>
		<path class="st8" d="M322.6,524.9c7.4-11.9,34.5-8.6,60.5,7.5s41.1,38.8,33.7,50.7s-34.5,8.6-60.5-7.5S315.3,536.8,322.6,524.9z"
			/>
	</g>
</g>
</svg>
