<svg 
id="Ebene_1_Kopie" data-name="Ebene 1 Kopie" xmlns="http://www.w3.org/2000/svg" viewBox="0 0 858.41 783.38"><style type="text/css">
        /* #333030
        #3a3939 */

        /*.item:nth-child(odd) {
          fill: #eeeeee;
        } */

        <!-- svg {
          animation: whirl 165s infinite;
        } -->
  #i {
    fill: red;
  }

        path:nth-child(even) {
          fill: #777;
          animation: lightup 6s alternate infinite;
        }
        path:nth-child(odd) {
          fill: #777;
          animation: lightup 4s alternate-reverse infinite;
        }

        @keyframes lightup {
          from {
            fill: #777;
          }
          to {
            fill: #eeeeee;
          }
        }


      </style>
<path d="M198.17,740.5a204.18,204.18,0,0,0,14.17,29.75A143.5,143.5,0,0,0,231,795.07a105.55,105.55,0,0,0,11.35,10.41,16.7,16.7,0,0,0,10.61,4.39,15.25,15.25,0,0,0,10.6-4.39c2.63-2.86,4.57-6.61,4.4-10.61-.17-3.7-1.35-8.2-4.4-10.6a110,110,0,0,1-18.69-19l2.35,3a156,156,0,0,1-19.67-34.61l1.52,3.58c-.66-1.56-1.3-3.14-1.93-4.72a16.71,16.71,0,0,0-6.89-9,15.3,15.3,0,0,0-11.56-1.51c-3.63,1.17-7.13,3.42-9,6.89s-3,7.88-1.51,11.56Z" 
transform="translate(-197.52 -79.64)" />
 
        <path d="M367.59,807.17c9.58,15,21,29.05,34.78,40.47A16.7,16.7,0,0,0,413,852a15.25,15.25,0,0,0,10.6-4.39c2.63-2.86,4.57-6.61,4.4-10.61-.17-3.76-1.38-8.1-4.4-10.6a152,152,0,0,1-22.85-23.76l2.34,3c-3.4-4.41-6.58-9-9.57-13.67a15.79,15.79,0,0,0-9-6.9A15.32,15.32,0,0,0,373,786.64c-3.21,2.07-6,5.14-6.9,9s-.67,8.13,1.51,11.56Z" transform="translate(-197.52 -79.64)" style="fill:#777"/><path d="M425.79,802.65l4.69,3.05a11.21,11.21,0,0,0,5.58,1.78A15.39,15.39,0,0,0,451,800.32l1.51-3.59a15,15,0,0,0,0-8L451,785.18a15.1,15.1,0,0,0-5.38-5.39l-4.69-3a11.11,11.11,0,0,0-5.57-1.78,15.39,15.39,0,0,0-14.95,7.16l-1.51,3.58a15.21,15.21,0,0,0,0,8l1.51,3.58a15.15,15.15,0,0,0,5.38,5.38Z" transform="translate(-197.52 -79.64)" style="fill:#777"/><path d="M321.35,619.15c7.42,22,18.34,42.8,34.36,59.79A113.46,113.46,0,0,0,368,690.17a16.64,16.64,0,0,0,10.6,4.39,15.26,15.26,0,0,0,10.61-4.39c2.62-2.86,4.57-6.62,4.39-10.61-.16-3.7-1.34-8.2-4.39-10.61a115.67,115.67,0,0,1-19.78-20l2.35,3a142.85,142.85,0,0,1-18.11-31.46l1.51,3.59q-2.69-6.37-4.88-12.93a15.91,15.91,0,0,0-6.89-9,15.32,15.32,0,0,0-11.56-1.51c-3.63,1.17-7.13,3.42-9,6.89s-2.8,7.73-1.51,11.56Z" transform="translate(-197.52 -79.64)" style="fill:#777"/><path d="M521.08,830.75a105.77,105.77,0,0,0,16.73,19.88,15.44,15.44,0,0,0,21.22,0c2.62-2.86,4.57-6.61,4.39-10.61S562,832.11,559,829.41A89.51,89.51,0,0,1,548.47,818l2.34,3c-1.34-1.75-2.61-3.54-3.83-5.38a11.34,11.34,0,0,0-3.86-4.21,15.5,15.5,0,0,0-16.66-1.17c-3.2,2.06-6,5.14-6.89,9l-.54,4a14.91,14.91,0,0,0,2.05,7.57Z" transform="translate(-197.52 -79.64)" style="fill:#777"/><path d="M948.27,771.21l14.19-10.68a8.33,8.33,0,0,0,3.45-4.48,7.67,7.67,0,0,0-.76-5.78,7.52,7.52,0,0,0-4.48-3.45c-1.83-.42-4.2-.43-5.78.76L940.7,758.25a8.44,8.44,0,0,0-3.45,4.49,7.65,7.65,0,0,0,.76,5.77,7.52,7.52,0,0,0,4.48,3.45c1.84.42,4.21.43,5.78-.75Z" transform="translate(-197.52 -79.64)" style="fill:#333030"/><path d="M914.94,862.06a130.85,130.85,0,0,0,25.86-17.91c3-2.61,2.86-8,0-10.61a7.67,7.67,0,0,0-10.6,0c-2.07,1.83-4.2,3.58-6.38,5.27l1.52-1.17a124.07,124.07,0,0,1-18,11.47,7.56,7.56,0,0,0-2.69,10.26,7.66,7.66,0,0,0,10.26,2.69Z" transform="translate(-197.52 -79.64)" style="fill:#3a3939"/><path d="M1033.8,822.79l19.93-17.5a7.5,7.5,0,0,0-5.31-12.8,8.24,8.24,0,0,0-5.3,2.19l-19.93,17.5a7.5,7.5,0,0,0,5.31,12.8,8.29,8.29,0,0,0,5.3-2.19Z" transform="translate(-197.52 -79.64)" style="fill:#3a3939"/><path d="M339.13,179.28l11-13.93a5.54,5.54,0,0,0,1.55-2.42,5.61,5.61,0,0,0,.65-2.89,7.63,7.63,0,0,0-2.2-5.3,7.55,7.55,0,0,0-5.3-2.2c-1.85.09-4.1.68-5.3,2.2l-11,13.93a5.6,5.6,0,0,0-1.55,2.41,5.76,5.76,0,0,0-.65,2.89,7.66,7.66,0,0,0,2.2,5.31,7.55,7.55,0,0,0,5.3,2.19c1.86-.08,4.1-.67,5.31-2.19Z" transform="translate(-197.52 -79.64)" style="fill:#333030"/><path d="M320.26,274.05a130.51,130.51,0,0,0,15.43-27.43c.7-1.66.1-4.31-.76-5.78a7.49,7.49,0,0,0-10.26-2.69,8.9,8.9,0,0,0-3.45,4.48l-.17.42.75-1.8a122.48,122.48,0,0,1-14.49,25.23,7.54,7.54,0,0,0-.76,5.78,7.65,7.65,0,0,0,3.45,4.49,7.54,7.54,0,0,0,5.78.75,8.7,8.7,0,0,0,4.48-3.45Z" transform="translate(-197.52 -79.64)" style="fill:#3a3939"/><path d="M427.59,221.4l17.83-19.62a7.92,7.92,0,0,0,2.2-5.3,7.66,7.66,0,0,0-2.2-5.31,7.52,7.52,0,0,0-10.61,0L417,210.8a7.88,7.88,0,0,0-2.2,5.3,7.5,7.5,0,0,0,12.81,5.3Z" transform="translate(-197.52 -79.64)" style="fill:#3a3939"/><path d="M936.24,81.52a57.16,57.16,0,0,0,6.91,4.7,22.48,22.48,0,0,1,6.68,6.24c.81,1.19,2.76.07,1.95-1.14a24.7,24.7,0,0,0-7-6.73,62.28,62.28,0,0,1-6.94-4.66c-1.09-1-2.69.63-1.59,1.59Z" transform="translate(-197.52 -79.64)" style="fill:#777"/><path d="M925.18,124.22A173.21,173.21,0,0,1,950,144c1,1,2.64-.58,1.6-1.59a177.43,177.43,0,0,0-25.25-20.15c-1.21-.8-2.34,1.14-1.14,1.94Z" transform="translate(-197.52 -79.64)" style="fill:#777"/><path d="M949.61,110.81a6.36,6.36,0,0,0-1.79-.63,1.12,1.12,0,0,0-1,.56h0a1.14,1.14,0,0,0,.18,1.36,3.49,3.49,0,0,0,1,.55c.68.32,1.35.65,2,1a63,63,0,0,1,5.73,3.21c.51.33,1,.67,1.52,1l.37.28.07,0,.16.12c.23.18.45.37.67.56a1.15,1.15,0,0,0,1.59,0,1.13,1.13,0,0,0,0-1.59c-3.11-2.73-7-4.66-10.67-6.44l-.75-.36c-.22-.11-.44-.33-.1,0l.17,1.36h0l-1,.56c-.54,0-.13,0,.09.11l1.1.44a1.14,1.14,0,0,0,1.39-.78,1.16,1.16,0,0,0-.79-1.39Z" transform="translate(-197.52 -79.64)" style="fill:#777"/></svg>
