<svg id="Ebene_6_Kopie" data-name="Ebene 6 Kopie" xmlns="http://www.w3.org/2000/svg" viewBox="0 0 1034.02 884.94"><g style="opacity:0.20000000298023224"><polyline points="422.27 166.41 448.05 140.95 451.05 137.99" style="fill:#fff;stroke:#333030;stroke-miterlimit:10;stroke-width:5px"/><line x1="369.04" y1="218.99" x2="419.81" y2="168.84" style="fill:none;stroke:#333030;stroke-miterlimit:10;stroke-width:5px"/><path d="M487.39,168.25a17.27,17.27,0,0,1-2.39,2.37Z" transform="translate(-65.15 -1.77)" style="fill:#fff;stroke:#333030;stroke-miterlimit:10;stroke-width:4.118579387664795px"/><path d="M627.7,1.77c73.73,0,133.5,64.25,133.5,143.5s-59.81,143.5-133.5,143.5c-54,0-100-39.07-120.26-81.12-14.24-29.6,5.47-58.59,5.76-64.88h0c0-3.54-17.92-25.66-5.89-51.74C523.68,55.49,567.39,1.77,627.7,1.77Z" transform="translate(-65.15 -1.77)" style="fill:#fff"/><path d="M485,170.62c-11.23,9.3-37.29,10.8-65.16,2.59-34.26-10.08-58.28-31-53.66-46.7s36.15-20.28,70.41-10.19,58.28,31,53.65,46.7a14.27,14.27,0,0,1-2.82,5.17.17.17,0,0,1-.06.06Z" transform="translate(-65.15 -1.77)" style="fill:#fff"/><path d="M480.39,314.49c-13.79,2.62-29.59-19.62-35.3-49.68s.83-56.54,14.61-59.16,29.59,19.62,35.3,49.68S494.17,311.85,480.39,314.49Z" transform="translate(-65.15 -1.77)" style="fill:#fff;stroke:#333030;stroke-miterlimit:10;stroke-width:3.52837872505188px"/></g><g style="opacity:0.20000000298023224"><polyline points="782.58 286.72 810.51 269.11 813.76 267.07" style="fill:#fff;stroke:#333030;stroke-miterlimit:10;stroke-width:4.556140899658203px"/><line x1="724.91" y1="323.08" x2="779.92" y2="288.4" style="fill:none;stroke:#333030;stroke-miterlimit:10;stroke-width:4.556140899658203px"/><path d="M847.66,288.54a15.93,15.93,0,0,1-2.59,1.64Z" transform="translate(-65.15 -1.77)" style="fill:#fff;stroke:#333030;stroke-miterlimit:10;stroke-width:3.7529656887054443px"/><path d="M1005.18,167.89c65.61,14.45,106.21,83.33,90.68,153.86s-81.31,116-146.92,101.54c-48.08-10.59-81.37-54.37-91.13-95.76-6.87-29.13,16.35-51.07,17.84-56.61h0c.72-3.15-10.92-26.35,4.9-47.2C902.08,195.32,951.46,156.06,1005.18,167.89Z" transform="translate(-65.15 -1.77)" style="fill:#fff"/><path d="M812.81,417.28c-12.79-.37-22.49-23.26-21.68-51.13S803,316,815.73,316.37s22.48,23.26,21.66,51.12S825.58,417.66,812.81,417.28Z" transform="translate(-65.15 -1.77)" style="fill:#fff;stroke:#333030;stroke-miterlimit:10;stroke-width:3.215157985687256px"/></g><g style="opacity:0.20000000298023224"><polyline points="171.48 382.52 175.66 412.47 176.14 415.96" style="fill:#fff;stroke:#333030;stroke-miterlimit:10;stroke-width:4.172756195068359px"/><line x1="162.85" y1="320.69" x2="171.08" y2="379.67" style="fill:none;stroke:#333030;stroke-miterlimit:10;stroke-width:4.172756195068359px"/><path d="M236.63,384.23a14.43,14.43,0,0,1-.39-2.78Z" transform="translate(-65.15 -1.77)" style="fill:#fff;stroke:#333030;stroke-miterlimit:10;stroke-width:3.4371657371520996px"/><path d="M278.39,436.11c15.58,28.66,29.75,84.67-.36,125.06-36.8,49.32-109.64,57.32-162.64,17.74S49.21,467.33,86,418c26.94-36.14,76-47.44,114.26-40,26.91,5.24,36.47,32.88,40.54,36.22h0C243.17,416,266.92,415.06,278.39,436.11Z" transform="translate(-65.15 -1.77)" style="fill:#fff"/><path d="M236.24,381.49c-.62-12.16,11.37-30.34,30.77-44.89,23.83-17.9,49.8-23.54,58-12.61s-4.47,34.3-28.31,52.19-49.8,23.54-58,12.6a12,12,0,0,1-2.07-4.44.09.09,0,0,1,0-.07Z" transform="translate(-65.15 -1.77)" style="fill:#fff;stroke:#333030;stroke-miterlimit:10;stroke-width:2.944612979888916px"/><path d="M142.28,306.63c5.13-10.53,27.89-10,50.85,1.16s37.41,28.76,32.29,39.29-27.88,10-50.84-1.16S137.15,317.15,142.28,306.63Z" transform="translate(-65.15 -1.77)" style="fill:#fff;stroke:#333030;stroke-miterlimit:10;stroke-width:2.944612979888916px"/></g><g style="opacity:0.20000000298023224"><polyline points="685.02 733.42 711.68 707.09 714.78 704.03" style="fill:#fff;stroke:#333030;stroke-miterlimit:10;stroke-width:5.170433521270752px"/><line x1="629.99" y1="787.79" x2="682.49" y2="735.93" style="fill:none;stroke:#333030;stroke-miterlimit:10;stroke-width:5.170433521270752px"/><path d="M750.12,735.26a19.14,19.14,0,0,1-2.48,2.45Z" transform="translate(-65.15 -1.77)" style="fill:#fff;stroke:#333030;stroke-miterlimit:10;stroke-width:4.258968353271484px"/><path d="M895.24,563.1c76.24,0,138,66.44,138,148.39s-61.81,148.39-138,148.39c-55.86,0-103.45-40.4-124.36-83.88-14.72-30.61,5.66-60.59,6-67.09h0c0-3.67-18.53-26.54-6.09-53.51C787.67,618.66,832.82,563.1,895.24,563.1Z" transform="translate(-65.15 -1.77)" style="fill:#fff"/><path d="M747.64,737.71c-11.61,9.61-38.56,11.16-67.38,2.67-35.42-10.42-60.26-32-55.49-48.29s37.39-21,72.81-10.54,60.27,32.05,55.48,48.3a14.74,14.74,0,0,1-2.88,5.34l-.06.07Z" transform="translate(-65.15 -1.77)" style="fill:#fff"/><path d="M742.91,886.49c-14.26,2.71-30.6-20.29-36.5-51.37s.85-58.47,15.1-61.18,30.6,20.29,36.51,51.37S757.16,883.75,742.91,886.49Z" transform="translate(-65.15 -1.77)" style="fill:#fff"/></g><g style="opacity:0.20000000298023224"><polyline points="360.58 627.15 361.93 663.36 362.08 667.57" style="fill:#fff;stroke:#333030;stroke-miterlimit:10;stroke-width:5px"/><line x1="357.77" y1="552.39" x2="360.44" y2="623.71" style="fill:none;stroke:#333030;stroke-miterlimit:10;stroke-width:5px"/><path d="M425.73,628.84a16.42,16.42,0,0,1-.14-3.36Z" transform="translate(-65.15 -1.77)" style="fill:#fff;stroke:#333030;stroke-miterlimit:10;stroke-width:4.118579387664795px"/><path d="M453.65,844.78c-49.82,54.36-137.57,55-196,1.48s-65.42-141-15.6-195.38c36.49-39.82,96.39-47.36,141.05-33.85,31.45,9.5,39.5,43.61,43.94,48.08h0c2.59,2.42,31,4.13,42.13,30.62C484.31,731.79,494.39,800.28,453.65,844.78Z" transform="translate(-65.15 -1.77)" style="fill:#fff"/><path d="M425.59,625.49c.73-14.56,17.24-34.79,42.12-49.79,30.58-18.45,62.22-22,70.68-8s-9.47,40.35-40.06,58.79-62.22,22-70.67,8a14.65,14.65,0,0,1-1.93-5.55.14.14,0,0,1,0-.09Z" transform="translate(-65.15 -1.77)" style="fill:#fff;stroke:#333030;stroke-miterlimit:10;stroke-width:3.52837872505188px"/><path d="M322.64,524.92c7.39-11.94,34.46-8.56,60.48,7.54s41.12,38.81,33.74,50.74-34.47,8.56-60.47-7.54S315.26,536.84,322.64,524.92Z" transform="translate(-65.15 -1.77)" style="fill:#fff;stroke:#333030;stroke-miterlimit:10;stroke-width:3.52837872505188px"/></g></svg>