<svg id="Ebene_6" data-name="Ebene 6" xmlns="http://www.w3.org/2000/svg" viewBox="0 0 1125.89 945.7"><g style="opacity:0.7"><rect x="363.81" width="399.15" height="316.43" style="fill:none"/><polyline points="487.42 168.18 513.2 142.72 516.2 139.76" style="fill:none;stroke:#333030;stroke-miterlimit:10;stroke-width:5px"/><line x1="434.19" y1="220.76" x2="484.96" y2="170.61" style="fill:none;stroke:#333030;stroke-miterlimit:10;stroke-width:5px"/><path d="M495,214.76a17.29,17.29,0,0,1-2.39,2.37Z" transform="translate(-7.61 -46.51)" style="fill:none;stroke:#333030;stroke-miterlimit:10;stroke-width:4.11857944085762px"/><path d="M635.31,48.28c73.73,0,133.5,64.25,133.5,143.5S709,335.28,635.31,335.28c-54,0-100-39.07-120.26-81.12-14.24-29.6,5.47-58.59,5.76-64.88v0c0-3.54-17.92-25.66-5.89-51.74C531.29,102,575,48.28,635.31,48.28Z" transform="translate(-7.61 -46.51)" style="fill:#333030"/><path d="M492.58,217.13c-11.23,9.3-37.29,10.8-65.16,2.59-34.26-10.08-58.28-31-53.66-46.7s36.15-20.28,70.41-10.19,58.28,31,53.65,46.7A14.39,14.39,0,0,1,495,214.7a.17.17,0,0,1-.06.06Z" transform="translate(-7.61 -46.51)" style="fill:none;stroke:#333030;stroke-miterlimit:10;stroke-width:3.52837865828711px"/><path d="M488,361c-13.79,2.62-29.59-19.62-35.3-49.68s.83-56.54,14.61-59.16,29.59,19.62,35.3,49.68S501.78,358.36,488,361Z" transform="translate(-7.61 -46.51)" style="fill:none;stroke:#333030;stroke-miterlimit:10;stroke-width:3.52837865828711px"/></g><g style="opacity:0.7"><rect x="780.73" y="159.16" width="288.34" height="363.71" transform="translate(385.33 1124.42) rotate(-77.58)" style="fill:none"/><polyline points="847.73 288.49 875.66 270.88 878.91 268.84" style="fill:none;stroke:#333030;stroke-miterlimit:10;stroke-width:4.556140899658203px"/><line x1="790.06" y1="324.85" x2="845.07" y2="290.17" style="fill:none;stroke:#333030;stroke-miterlimit:10;stroke-width:4.556140899658203px"/><path d="M855.27,335.05a15.88,15.88,0,0,1-2.59,1.64Z" transform="translate(-7.61 -46.51)" style="fill:none;stroke:#333030;stroke-miterlimit:10;stroke-width:3.752965647796563px"/><path d="M1012.79,214.4c65.61,14.45,106.21,83.33,90.68,153.86s-81.31,116-146.92,101.54c-48.08-10.59-81.37-54.37-91.13-95.76-6.87-29.13,16.35-51.07,17.84-56.61v0c.72-3.15-10.92-26.35,4.9-47.2C909.69,241.83,959.07,202.57,1012.79,214.4Z" transform="translate(-7.61 -46.51)" style="fill:#333030"/><path d="M852.68,336.69c-11.81,6.07-35.3,2.3-58.49-10.47-28.51-15.68-45.79-39-38.6-52.07s36.14-11,64.65,4.73,45.79,39,38.6,52.07a13.15,13.15,0,0,1-3.5,4.05s0,0-.07.05Z" transform="translate(-7.61 -46.51)" style="fill:none;stroke:#333030;stroke-miterlimit:10;stroke-width:3.2151580629006076px"/><path d="M820.42,463.79c-12.79-.37-22.49-23.26-21.68-51.13s11.82-50.15,24.6-49.78S845.82,386.14,845,414,833.19,464.17,820.42,463.79Z" transform="translate(-7.61 -46.51)" style="fill:none;stroke:#333030;stroke-miterlimit:10;stroke-width:3.2151580629006076px"/></g><g style="opacity:0.7"><rect x="46.47" y="354.57" width="333.11" height="264.08" transform="translate(-312.04 320.02) rotate(-53.29)" style="fill:none"/><polyline points="236.63 384.29 240.81 414.24 241.29 417.73" style="fill:none;stroke:#333030;stroke-miterlimit:10;stroke-width:4.172756373882294px"/><line x1="228" y1="322.46" x2="236.23" y2="381.44" style="fill:none;stroke:#333030;stroke-miterlimit:10;stroke-width:4.172756373882294px"/><path d="M244.24,430.74a13.8,13.8,0,0,1-.39-2.78Z" transform="translate(-7.61 -46.51)" style="fill:none;stroke:#333030;stroke-miterlimit:10;stroke-width:3.4371657226358416px"/><path d="M286,482.62c15.58,28.66,29.75,84.67-.36,125.06C248.84,657,176,665,123,625.42S56.82,513.84,93.6,464.51c26.94-36.14,76-47.44,114.26-40,26.91,5.24,36.47,32.88,40.54,36.22l0,0C250.78,462.54,274.53,461.57,286,482.62Z" transform="translate(-7.61 -46.51)" style="fill:#333030"/><path d="M285.62,607.68C248.84,657,176,665,123,625.42S56.82,513.84,93.6,464.51c26.94-36.14,76-47.44,114.26-40,26.91,5.24,36.47,32.88,40.54,36.22l0,0c2.36,1.78,26.11.81,37.56,21.86C301.56,511.28,315.73,567.29,285.62,607.68Z" transform="translate(-7.61 -46.51)" style="fill:none;stroke:#333030;stroke-miterlimit:10;stroke-width:2.944612907167559px"/><path d="M243.85,428c-.62-12.16,11.37-30.34,30.77-44.89,23.83-17.9,49.8-23.54,58-12.61s-4.47,34.3-28.31,52.19-49.8,23.54-58,12.6a12,12,0,0,1-2.07-4.44.15.15,0,0,1,0-.07Z" transform="translate(-7.61 -46.51)" style="fill:none;stroke:#333030;stroke-miterlimit:10;stroke-width:2.944612907167559px"/><path d="M149.89,353.14c5.13-10.53,27.89-10,50.85,1.16s37.41,28.76,32.29,39.29-27.88,10-50.84-1.16S144.76,363.66,149.89,353.14Z" transform="translate(-7.61 -46.51)" style="fill:none;stroke:#333030;stroke-miterlimit:10;stroke-width:2.944612907167559px"/></g><g style="opacity:0.7"><rect x="622.36" y="561.27" width="412.75" height="327.21" style="fill:none"/><polyline points="750.17 735.19 776.83 708.86 779.93 705.8" style="fill:none;stroke:#333030;stroke-miterlimit:10;stroke-width:5.170433521270752px"/><line x1="695.14" y1="789.56" x2="747.64" y2="737.7" style="fill:none;stroke:#333030;stroke-miterlimit:10;stroke-width:5.170433521270752px"/><path d="M757.73,781.77a18.56,18.56,0,0,1-2.48,2.45Z" transform="translate(-7.61 -46.51)" style="fill:none;stroke:#333030;stroke-miterlimit:10;stroke-width:4.258968240205358px"/><path d="M902.85,609.61c76.24,0,138.05,66.44,138.05,148.39S979.09,906.39,902.85,906.39c-55.86,0-103.45-40.4-124.36-83.88-14.72-30.61,5.66-60.59,6-67.09v0c0-3.67-18.53-26.54-6.09-53.51C795.28,665.17,840.43,609.61,902.85,609.61Z" transform="translate(-7.61 -46.51)" style="fill:#333030"/><path d="M755.25,784.22c-11.61,9.61-38.56,11.16-67.38,2.67-35.42-10.42-60.26-32-55.49-48.29s37.39-21,72.81-10.54,60.27,32.05,55.48,48.3a14.93,14.93,0,0,1-2.88,5.34l-.06.07Z" transform="translate(-7.61 -46.51)" style="fill:none;stroke:#333030;stroke-miterlimit:10;stroke-width:3.6486494581087987px"/><path d="M750.52,933c-14.26,2.71-30.6-20.29-36.5-51.37s.85-58.47,15.1-61.18,30.6,20.29,36.51,51.37S764.77,930.26,750.52,933Z" transform="translate(-7.61 -46.51)" style="fill:none;stroke:#333030;stroke-miterlimit:10;stroke-width:3.6486494581087987px"/></g><g style="opacity:0.7"><rect x="189.79" y="579.97" width="399.15" height="316.43" transform="translate(-425.54 480) rotate(-47.5)" style="fill:none"/><polyline points="425.73 628.92 427.08 665.13 427.23 669.34" style="fill:none;stroke:#333030;stroke-miterlimit:10;stroke-width:5px"/><line x1="422.92" y1="554.16" x2="425.59" y2="625.48" style="fill:none;stroke:#333030;stroke-miterlimit:10;stroke-width:5px"/><path d="M433.34,675.35a16.9,16.9,0,0,1-.14-3.36Z" transform="translate(-7.61 -46.51)" style="fill:none;stroke:#333030;stroke-miterlimit:10;stroke-width:4.11857944085762px"/><path d="M461.26,891.29c-49.82,54.36-137.57,55-196,1.48s-65.42-141-15.6-195.38c36.49-39.82,96.39-47.36,141.05-33.85,31.45,9.5,39.5,43.61,43.94,48.08l0,0c2.59,2.42,31,4.13,42.13,30.62C491.92,778.3,502,846.79,461.26,891.29Z" transform="translate(-7.61 -46.51)" style="fill:#333030"/><path d="M433.2,672c.73-14.56,17.24-34.79,42.12-49.79,30.58-18.45,62.22-22,70.68-8s-9.47,40.35-40.06,58.79-62.22,22-70.67,8a14.52,14.52,0,0,1-1.93-5.55.14.14,0,0,1,0-.09Z" transform="translate(-7.61 -46.51)" style="fill:none;stroke:#333030;stroke-miterlimit:10;stroke-width:3.52837865828711px"/><path d="M330.25,571.43c7.39-11.94,34.46-8.56,60.48,7.54s41.12,38.81,33.74,50.74S390,638.27,364,622.17,322.87,583.35,330.25,571.43Z" transform="translate(-7.61 -46.51)" style="fill:none;stroke:#333030;stroke-miterlimit:10;stroke-width:3.52837865828711px"/></g></svg>