<svg id="Ebene_4" data-name="Ebene 4" xmlns="http://www.w3.org/2000/svg" viewBox="0 0 1156.88 1083.02"><path d="M925.47,978.17a471.83,471.83,0,0,0,70.44-46.28,590.88,590.88,0,0,0,62-57,817.74,817.74,0,0,0,54.84-64.49c17.48-22.71,34-46.17,49.89-70s31.14-48,46.17-72.38l5.39-8.74c.32-.52.09-3.47.09-3.66q0-4.43,0-8.84c0-2.95,0-5.9,0-8.84l0-2a16,16,0,0,0-.06-1.7c-15,24.35-30.12,48.59-45.83,72.47s-32.1,47.54-49.36,70.44c-17,22.57-35,44.47-54.12,65.26a609.63,609.63,0,0,1-61.1,58.08,479,479,0,0,1-69.34,47.72c-3,1.68-6,3.31-9,4.92a22.44,22.44,0,0,0-.09,3.66c0,2.95,0,5.89,0,8.84s0,5.89,0,8.84a27.51,27.51,0,0,1,.09,3.66Z" transform="translate(-57.49 4.3)" style="fill:#333030"/><path d="M1079.38,647.2c10.38-15.68,11.28-35.22,11.89-53.42,1-28.1,1-56.28,0-84.38q-.58-18.34-1.91-36.66c-.11-1.59-.11,2-.09,1.26,0,2.49-.06,5-.06,7.47,0,5.1-.28,10.29.09,15.38q1.5,21,2.06,42.11l0,1c0,1.62,0-.91,0,.72,0,.83,0,1.65,0,2.48q.06,2.73.09,5.46c0,1.68,0-1.33,0-.22,0,.41,0,.82,0,1.24,0,.83,0,1.65,0,2.48,0-3.45,0-.28,0,.45v-2c0,.33,0,.66,0,1v.5c0,1.27,0,.66,0-1.83v1.24c0,1.53,0-3.67,0-1.59v.49c0,1.17,0,.67,0-1.49v1.49c0,1,0,.66,0-1,0,.33,0,.67,0,1,0,1,0,2,0,3,.15-2.27,0,.47,0,1,0,.83,0,1.66,0,2.48s0,1.66,0,2.48l0,1.49c0,1.63,0-.9,0,.73-.18,7.28-.37,14.58-.9,21.85l0-.44c-1,13.68-3.48,27.66-11.19,39.3-.32.47-.09,3.53-.09,3.66q0,4.41,0,8.84c0,2.94,0,5.89,0,8.84l0,2c0,.57,0,1.14.07,1.71Z" transform="translate(-57.49 4.3)" style="fill:#333030"/><path d="M794.45,809a364.2,364.2,0,0,0,99.3-68.38q12.29-11.89,23.4-24.9c.3-.34.09-3.73.09-3.66,0-3,0-5.89,0-8.84s0-5.89,0-8.84l0-1.95c0-.57,0-1.14-.07-1.71a364.24,364.24,0,0,1-92.45,77.39Q810,776.8,794.45,784a26.62,26.62,0,0,0-.09,3.67c0,2.94,0,5.89,0,8.83s0,5.9,0,8.84a29.36,29.36,0,0,1,.09,3.66Z" transform="translate(-57.49 4.3)" style="fill:#333030"/><path d="M727.36,874.68a425.47,425.47,0,0,0,76.8,7.25,532.46,532.46,0,0,0,76.53-5.34,748.41,748.41,0,0,0,76.52-15c25.37-6.29,50.45-13.66,75.33-21.64s49.71-16.63,74.39-25.47c3-1.08,6-2.15,9-3.24a30.11,30.11,0,0,0,.09-3.66q0-4.41,0-8.84c0-2.94,0-5.89,0-8.84,0-.38-.19-3.62-.09-3.66-24.63,8.88-49.32,17.59-74.2,25.73s-49.88,15.7-75.19,22.25-50.7,12-76.44,16a552.54,552.54,0,0,1-76.51,6.68,432.57,432.57,0,0,1-76.84-5.54c-3.14-.52-6.28-1.08-9.4-1.67.19,0-.13,11.54-.13,12.5,0,3,0,5.89,0,8.84a24.93,24.93,0,0,0,.09,3.66Z" transform="translate(-57.49 4.3)" style="fill:#333030"/><path d="M832.62,110.62c44.21,13.82,83.92,39.42,116.81,71.82,34.68,34.16,61.46,75.44,80.89,120,21.34,48.89,34,101.19,41.43,153.9a701,701,0,0,1,6.73,73.47q.15,4.13.22,8.25c0,.51,0,1,0,1.55,0,.19,0,1.85,0,.47.07-1.89.44-4.76,0-6.6,0-.13,0-1.95,0,.52-.11,5.59-.3,11.17-.6,16.75-.65,11.93-1.79,23.85-3.49,35.69-6.45,44.83-21.44,89.13-49.67,125.06q-5.13,6.52-10.77,12.61c-.28.31-.09,3.78-.09,3.66q0,4.42,0,8.84c0,3,0,5.9,0,8.84,0,.6.41,3.32.09,3.66,32.07-34.76,50.21-79.36,58.48-125.49,4.31-24.1,6-48.54,6.24-73,.29-28.09-.26-56.11-3-84.08-5.27-54.51-15.59-109-34.26-160.57-17.48-48.28-42.59-93.89-76.87-132.32-31.68-35.52-70.88-64.87-115.43-82.15q-8.28-3.21-16.76-5.84c.4.12-.12,11.47-.12,12.5,0,2.94,0,5.89,0,8.84,0,.41-.13,3.59.09,3.66Z" transform="translate(-57.49 4.3)" style="fill:#333030"/><path d="M532.81,160.78c75.41-26.56,159-12.48,229.47,22,69.1,33.8,128.37,85.75,181.64,140.54,51.11,52.59,96.95,111.09,131,176.25a525.94,525.94,0,0,1,40.46,100.91,438.55,438.55,0,0,1,11.74,54.13,283.24,283.24,0,0,1,3,31.31l.05,1.27q.21,8.28,0-11.4c0,1.27-.07,2.54-.12,3.81-.11,2.59-.27,5.17-.49,7.76-.44,5.23-1.1,10.44-2,15.61-6,34.5-24.13,64.59-50.51,87.41-25.15,21.76-55.86,36.61-87.52,46.27-7.69,2.35-15.48,4.38-23.33,6.14-.54.12-.13,11.47-.13,12.5s.48,12.42.13,12.5c64.77-14.51,133.59-51.08,155.86-117.88,6.77-20.29,8.27-41.31,8.34-62.54.08-23.31-1-46.09-5.17-69.06a485.84,485.84,0,0,0-32.56-106.46C1063,443.06,1019.28,381,969.35,325.48a1004.5,1004.5,0,0,0-81.42-80.67c-29.71-26.28-61.29-50.66-95.51-70.81-68.8-40.52-151.36-63.61-230.92-46.37a238,238,0,0,0-28.69,8.15c-.75.26-.13,11.36-.13,12.5s.74,12.28.13,12.5Z" transform="translate(-57.49 4.3)" style="fill:#333030"/><path d="M458.07,59.29C527,53.5,596.62,63.05,662.09,85c63.76,21.33,123.17,54.33,175.93,95.9,51.15,40.31,96,88.35,134.09,141.13,39.82,55.22,74.18,116.05,94,181.46a408.18,408.18,0,0,1,12.09,51.41q2.1,12.64,3.28,25.43.58,6.32.94,12.65.18,3.27.3,6.56c.1,2.78.15,12.09.15.1s0-2.53-.16.26c-.07,2-.16,4-.27,5.95q-.39,6.91-1.08,13.81c-.87,8.67-2.11,17.31-3.73,25.87a275.38,275.38,0,0,1-13.92,49q-4.53,11.61-10.16,22.75c-.32.64-.09,3.29-.09,3.66q0,4.42,0,8.84c0,2.95,0,5.89,0,8.84,0,.85.44,3,.09,3.66,15.89-31.51,25-66,28.15-101.14,1.89-21.18,1.8-42.64,1.14-63.88a357.72,357.72,0,0,0-5.34-51.42c-12.51-70.57-44.43-136.33-83.09-196.11-36.16-55.94-79.49-107.41-129.55-151.43C813.49,133.05,755,96,691.39,70.68,625.8,44.57,555,30.76,484.36,32.79q-13.16.38-26.29,1.5c-.88.07.51,25,0,25Z" transform="translate(-57.49 4.3)" style="fill:#333030"/><path d="M551.66,78.55c-74-3.15-156-2.6-214.83,49.28-28.6,25.25-49.27,58.43-65.52,92.62C254,256.8,242,295.49,234.28,335s-10.72,79.74-10.95,120c-.27,44.39,2,88.48,8,132.49C243,673.31,265,757.8,289,840.92c21.61,74.89,48.11,149.88,92.83,214.42q8.3,12,17.4,23.38a22,22,0,0,1,.09-3.66c0-3,0-5.9,0-8.84s0-5.9,0-8.84c0-.75.34-3.12-.09-3.66C351.66,994,322.11,922.8,299.41,850.54c-11.83-37.63-22.1-75.76-32-113.93-10.73-41.33-20.57-82.92-28.23-124.94-7.76-42.58-13.29-85.63-15.09-128.9q-.3-7.09-.45-14.2c0-.47,0-5.83-.09-5.84.09,0-.1,8.1,0,3.32,0-1.72.05-3.45.09-5.17Q224,446,225,431.15a594.16,594.16,0,0,1,7.09-59.35c6.57-38.25,17.15-75.87,32.49-111.54,14.58-33.9,33.18-67.06,58.54-94.12,25-26.67,56.55-44.58,91.83-53.78,35.53-9.25,72.65-10.51,109.18-9.73,9.17.19,18.34.53,27.51.92-.17,0,.54-25,0-25Z" transform="translate(-57.49 4.3)" style="fill:#333030"/><path d="M324.57,292.15c-39.34,43-65.3,96.59-79.57,152.78a431.88,431.88,0,0,0-13.2,90.24c-1.32,36.1-1,73.07,9.48,108,17,56.65,56.65,103,97.22,144.58,40.15,41.12,83.9,79.1,132.2,110.4,47.62,30.85,99.91,55.06,155.47,67.35q10.38,2.28,20.86,4c-.15,0,.12-11.55.12-12.5s.4-12.42-.12-12.5c-54.75-9.1-106.85-29.91-154.59-58-48.06-28.22-91.79-63.41-131.92-102-20.47-19.66-40.34-40.11-58.61-61.84s-35.14-45.4-47.58-71.22a230.4,230.4,0,0,1-22.27-88c-.11-2-.19-4.09-.26-6.14,0-.8,0-1.61-.07-2.42-.18-6.6-.1,12.61,0,10.51.15-4.31.23-8.6.47-12.9.46-8.26,1.21-16.5,2.17-24.71q2.47-21.15,6.93-42c11.84-55.23,34.48-108.77,69.93-153.06q6.42-8,13.36-15.58c.28-.31.09-3.77.09-3.66q0-4.41,0-8.84c0-2.94,0-5.89,0-8.83,0-.61-.41-3.32-.09-3.67Z" transform="translate(-57.49 4.3)" style="fill:#333030"/><path d="M85.38,219.71c-5.19,68.87-9.18,138-6,207C82.23,490.1,93,553.82,119.59,611.8c26.5,57.7,68.3,107,116.22,148.09A609.68,609.68,0,0,0,572.54,902.94q11.54,1.09,23.1,1.74c-.29,0,.65-25,0-25a605,605,0,0,1-176.32-37A608.88,608.88,0,0,1,261.5,755.72C213,718.62,169.14,674,137.74,621.32c-31.89-53.47-48.38-114.18-55.07-175.73C81,429.78,79.85,413.92,79.22,398q-.43-11.07-.57-22.16c-.05-3.8,0,1.71,0-2.09,0,1.71,0-.23,0-.48,0,.43,0,3.82,0,.86,0,.51,0,1.84,0-.49,0-2.73.09-7.15.16-10.58.64-31.63,2.58-63.22,4.83-94.77q.86-11.81,1.75-23.62c.62-8.29-.63-16.73,0-25Z" transform="translate(-57.49 4.3)" style="fill:#333030"/><path d="M81.84,861.54c50.25,39,118.34,43.56,179.56,43.44,69.68-.14,139.05-10.3,206.69-26.69,67.81-16.43,134-39,198.84-64.65,66-26.06,130.78-55.12,194.63-86.06s126.86-63.79,189.37-97.45q11.67-6.27,23.31-12.6c1-.54.13-11.14.13-12.5s-1.07-12-.13-12.5c-62.41,33.85-125.2,67-188.87,98.41s-128.15,61-193.86,87.83c-64.68,26.38-130.56,50.12-198.1,68.08-67.31,17.91-136.37,30.06-206,32.62-33.3,1.23-67,.72-100.07-3.6-30-3.93-60.17-11.53-86.64-26.7a163,163,0,0,1-18.81-12.63,33.23,33.23,0,0,1-.09,3.66c0,2.94,0,5.89,0,8.84s0,5.89,0,8.83c0,.57-.28,3.37.09,3.67Z" transform="translate(-57.49 4.3)" style="fill:#333030"/><path d="M57.66,637.12c30.22-65.26,37.93-137.46,51.59-207.29,6.68-34.11,15.07-67.83,27.48-100.33a499.93,499.93,0,0,1,45.48-90.3c36.7-57.54,85.6-109.58,144.1-145.27,57.82-35.26,124.34-52,191-60.09,68.12-8.32,136.88-8.45,205.34-11.76q12.55-.6,25.11-1.38c.7,0-.32-25,0-25-68.64,4.25-137.54,4-206,10.5-66.77,6.36-133.95,19.55-194,50.65-61.12,31.68-112.51,81.4-152.09,137.3S129.44,313,114.53,379.57C99,449,93.06,521,67.81,587.93q-4.64,12.27-10.15,24.19c-.32.69-.08,3.21-.09,3.66,0,3,0,5.89,0,8.84s0,5.89,0,8.84c0,.88.44,2.91.09,3.66Z" transform="translate(-57.49 4.3)" style="fill:#333030"/></svg>