<svg xmlns="http://www.w3.org/2000/svg" viewBox="0 0 28 22"><g id="Ebene_6" data-name="Ebene 6"><path d="M28,8.05V18a5,5,0,0,1-5,5.05H7A5,5,0,0,1,2,18V15.54A1.54,1.54,0,0,1,3.53,14H10A5,5,0,0,0,15,9V4.54A1.54,1.54,0,0,1,16.54,3h6.4A5,5,0,0,1,28,8.05Z" transform="translate(-0.99 -2)" style="fill:none;stroke:#fcfa8f;stroke-miterlimit:10;stroke-width:2px;fill-rule:evenodd"/></g><g id="Ebene_8" data-name="Ebene 8"><polygon points="21.36 15.05 19.83 15.05 18.02 15.05 19.06 12.59 12.12 15.53 19.06 18.46 18.02 16 19.83 16 21.36 16 21.36 15.05" style="fill:#fcfb9c"/><line x1="21.51" y1="8.5" x2="21.51" y2="15.5" style="fill:none;stroke:#fcfa8f;stroke-linecap:round;stroke-linejoin:round"/></g></svg>