<svg xmlns="http://www.w3.org/2000/svg" viewBox="0 0 94.94 88.06"><g id="Ebene_3" data-name="Ebene 3"><g style="opacity:0.2"><path d="M24.59,87.53A15.53,15.53,0,0,1,11.15,64.24l25.4-44a15.54,15.54,0,0,1,26.9,0l25.4,44A15.53,15.53,0,0,1,75.41,87.53Z" transform="translate(-2.53 -5.97)"/><path d="M50,19a8.94,8.94,0,0,1,7.82,4.51l25.41,44A9,9,0,0,1,75.41,81H24.59a9,9,0,0,1-7.82-13.54l25.41-44A8.94,8.94,0,0,1,50,19M50,6A21.8,21.8,0,0,0,30.93,17L5.52,61A22,22,0,0,0,24.59,94H75.41A22,22,0,0,0,94.48,61L69.07,17A21.8,21.8,0,0,0,50,6Z" transform="translate(-2.53 -5.97)" style="fill:#fff"/></g></g><g id="Ebene_6" data-name="Ebene 6"><g style="opacity:0.2"><path d="M50.5,42.1A14.1,14.1,0,1,1,64.6,28,14.12,14.12,0,0,1,50.5,42.1Z" transform="translate(-2.53 -5.97)"/><path d="M50.5,19a9,9,0,1,1-9,9,9,9,0,0,1,9-9m0-10.2A19.2,19.2,0,1,0,69.7,28,19.22,19.22,0,0,0,50.5,8.8Z" transform="translate(-2.53 -5.97)" style="fill:#fff"/></g><g style="opacity:0.2"><circle cx="72.97" cy="66.53" r="14.1"/><path d="M75.5,63.5a9,9,0,1,1-9,9,9,9,0,0,1,9-9m0-10.2A19.2,19.2,0,1,0,94.7,72.5,19.22,19.22,0,0,0,75.5,53.3Z" transform="translate(-2.53 -5.97)" style="fill:#fff"/></g><g style="opacity:0.2"><circle cx="21.97" cy="66.53" r="14.1"/><path d="M24.5,63.5a9,9,0,1,1-9,9,9,9,0,0,1,9-9m0-10.2A19.2,19.2,0,1,0,43.7,72.5,19.22,19.22,0,0,0,24.5,53.3Z" transform="translate(-2.53 -5.97)" style="fill:#fff"/></g></g></svg>