<svg xmlns="http://www.w3.org/2000/svg" viewBox="0 0 1211.57 1024"><defs><style>.cls-1{fill:#0071bc;}</style></defs><g id="Ebene_3" data-name="Ebene 3"><path class="cls-1" d="M1180.38,1024H99.83c-28.89,0-53.55-19.07-63.23-45.91a60.75,60.75,0,0,1-1.19-36.82l24.16-87.38a61.91,61.91,0,0,0-.76-35.52L40.34,761.2a61.88,61.88,0,0,1,4.46-48.45l9.48-17.53a61.91,61.91,0,0,0,3.89-50.11l-18-50.86A61.9,61.9,0,0,1,41.3,549.9l11-26.62A61.91,61.91,0,0,0,54.49,482L37.84,425.83a61.91,61.91,0,0,1,.85-37.77l14.73-42.64a62,62,0,0,0,1-37.06L36.7,245.56a61.86,61.86,0,0,1-.51-31.82l13.7-54.93A61.86,61.86,0,0,0,49,125.59L34.82,79.73a60.13,60.13,0,0,1-2.71-20.46C34.19,14.16,65.09-1.29,99.83.08H1180.38c.67,0,1.34,0,2,0,48.38,1.48,75.53,56.61,48.28,96.61l-20,29.4a61.88,61.88,0,0,0-1.73,67l21.39,35.17a61.86,61.86,0,0,1,2.58,59.65l-29.59,59.7a61.89,61.89,0,0,0,4.27,62.29l21.87,32.16a61.9,61.9,0,0,1,6.2,58l-29.74,73.57a61.9,61.9,0,0,0,3.22,53.17l24.83,44.85a61.91,61.91,0,0,1,3.48,52.53l-38.34,97.94a61.88,61.88,0,0,0,4.14,53.69l32,54.89c15.91,27.32,8.91,62.58-16.8,81A65,65,0,0,1,1180.38,1024Z" transform="translate(-32.05)"/></g></svg>