<svg xmlns="http://www.w3.org/2000/svg" viewBox="0 0 1215.16 1026.45"><defs><style>.cls-1{fill:#fff;}.cls-2{fill:#c7b299;}</style></defs><g id="Ebene_2" data-name="Ebene 2"><rect class="cls-1" x="249.66" y="375.22" width="57" height="46"/><path d="M338,376v42H285V376h53m4-4H281v50h61V372Z" transform="translate(-33.34 1.22)"/><rect class="cls-1" x="409.66" y="424.22" width="56" height="54"/><path d="M497,425v50H445V425h52m4-4H441v58h60V421Z" transform="translate(-33.34 1.22)"/><rect class="cls-1" x="188.66" y="533.22" width="95" height="102"/><path d="M315,534v98H224V534h91m4-4H220V636h99V530Z" transform="translate(-33.34 1.22)"/><rect class="cls-1" x="800.66" y="646.22" width="72" height="157"/><path d="M904,647V800H836V647h68m4-4H832V804h76V643Z" transform="translate(-33.34 1.22)"/><rect class="cls-1" x="851.66" y="428.22" width="254" height="74"/><path d="M1137,429v70H887V429h250m4-4H883v78h258V425Z" transform="translate(-33.34 1.22)"/><rect class="cls-1" x="353.66" y="739.22" width="177" height="104"/><path d="M562,740V840H389V740H562m4-4H385V844H566V736Z" transform="translate(-33.34 1.22)"/></g><g id="Ebene_3_Kopie" data-name="Ebene 3 Kopie"><path class="cls-2" d="M100.88-1.22,1181.43,1.22c33.48.08,61.22,25.75,66.54,59.4a46.27,46.27,0,0,1-1.21,19.58l-26.65,95.53a46.89,46.89,0,0,0,.52,27l21.64,67.53A47,47,0,0,1,1238.8,307l-15.72,28.92a47,47,0,0,0-3,38l22,62.54a47,47,0,0,1-1,33.67l-15.31,36.74a47,47,0,0,0-1.72,31.32l19.35,65.88a47.06,47.06,0,0,1-.7,28.68l-17.93,51.53a47,47,0,0,0-.87,28.13l20,71.17a47,47,0,0,1,.32,24.16l-15.79,62.77a47.06,47.06,0,0,0,.63,25.22L1245,948a47.25,47.25,0,0,1,2.06,14.51c-.67,47.89-32.31,64.13-68,62.64L98.57,1022.69c-27.43-.06-51-17.3-61.55-42A46.7,46.7,0,0,1,41.62,936L74,888.67a47,47,0,0,0,1.43-50.88L44.93,787.34A47,47,0,0,1,43.08,742l37.27-74.77A47,47,0,0,0,77.22,620L46.08,574a47,47,0,0,1-4.61-44l35.59-87.46a47,47,0,0,0-2.36-40.37L43.17,344.82a47,47,0,0,1-2.55-39.88L84.39,193.87a47,47,0,0,0-3.06-40.77L41.18,83.76A46.54,46.54,0,0,1,37.5,44.68C47.21,17.8,71.94-1.28,100.88-1.22Z" transform="translate(-33.34 1.22)"/></g></svg>