<svg xmlns="http://www.w3.org/2000/svg" viewBox="0 0 100 85.15"><g id="themes"><g style="opacity:0.2"><path d="M39.06,87.19a6.73,6.73,0,0,1-.89,0,37.38,37.38,0,0,1,0-74.28,6.73,6.73,0,0,1,.89,0A8,8,0,0,1,47,20.75v58.5A8,8,0,0,1,39.06,87.19Z" transform="translate(0 -7.42)"/><path d="M39.06,17.81A2.94,2.94,0,0,1,42,20.75v58.5a2.94,2.94,0,0,1-2.94,2.94h-.33a32.39,32.39,0,0,1,0-64.36h.33m0-10a11.58,11.58,0,0,0-1.44.08,42.38,42.38,0,0,0,0,84.22,11.58,11.58,0,0,0,1.44.08A13,13,0,0,0,52,79.25V20.75A13,13,0,0,0,39.06,7.81Z" transform="translate(0 -7.42)" style="fill:#fff"/></g><g style="opacity:0.2"><path d="M60.94,87.58a8,8,0,0,1-7.94-8V20.4a8,8,0,0,1,7.94-8c.29,0,.59,0,.89.05a37.82,37.82,0,0,1,0,75.06c-.3,0-.6,0-.89,0Z" transform="translate(0 -7.42)" style="fill:#fff"/><path d="M60.94,17.42l.33,0a32.82,32.82,0,0,1,0,65.12l-.33,0a3,3,0,0,1-2.94-3V20.4a3,3,0,0,1,2.94-3m0-10A13,13,0,0,0,48,20.4V79.6a13,13,0,0,0,12.94,13,12,12,0,0,0,1.46-.09,42.81,42.81,0,0,0,0-85,12,12,0,0,0-1.46-.09Z" transform="translate(0 -7.42)" style="fill:#fff"/></g></g></svg>